<?xml version="1.0" encoding="utf-8"?>
<!-- Generator: Adobe Illustrator 27.9.0, SVG Export Plug-In . SVG Version: 6.00 Build 0)  -->
<svg version="1.1" id="Lager_1" xmlns="http://www.w3.org/2000/svg" xmlns:xlink="http://www.w3.org/1999/xlink" x="0px" y="0px"
	 viewBox="0 0 878.6 483" style="enable-background:new 0 0 878.6 483;" xml:space="preserve">
<style type="text/css">
	.st0{fill:#F1F1F1;}
	.st1{fill:#CACACA;}
	.st2{fill:#F2F2F2;}
	.st3{fill:#E6E6E6;}
	.st4{fill:#FEB8B8;}
	.st5{fill:#2F2E41;}
	.st6{fill:url(#SVGID_1_);}
	.st7{fill:#FBBEBE;}
	.st8{fill:url(#efe93a1e-ccdd-49fd-af5f-e26394aa0937-1530_00000111879191773274122340000016014926449811151252_);}
	.st9{fill:url(#bd3879bf-5d05-49be-b690-c4d97e29a2ab-1532_00000101075686910311126330000001854619330506302128_);}
	.st10{fill:#3F3D56;}
	.st11{fill:#FFFFFF;}
	.st12{fill:#3576E1;}
</style>
<path class="st0" d="M134,412.7c-19.5,14.5-25,40.1-25,40.1s26.1,2,45.6-12.5s25-40.1,25-40.1S153.5,398.2,134,412.7z"/>
<path class="st0" d="M142.2,419.5c-9.4,22.5-32.9,34-32.9,34s-8.3-24.8,1.1-47.3s32.9-34,32.9-34S151.5,397.1,142.2,419.5z"/>
<path class="st1" d="M703.5,354.6L703.5,354.6c-2.1-14-2.6-28.1-1.6-42.2l1.6-23.3l0,0C694.5,307,696.5,330.6,703.5,354.6z"/>
<path class="st1" d="M710.5,358.5L710.5,358.5c-1-8.3-1.3-16.7-0.8-25.1l0.8-13.9l0,0C706.2,330.2,707.2,344.2,710.5,358.5z"/>
<path class="st2" d="M741.7,375.7v7.8c0,1.3-1.1,2.3-2.3,2.3h-3.9c-0.4,0-0.8,0.3-0.8,0.8c0,0,0,0,0,0v63.9c0,1.3-1.1,2.3-2.3,2.3
	h-47.6c-1.3,0-2.3-1-2.3-2.3v-63.9c0-0.4-0.3-0.8-0.8-0.8H677c-1.3,0-2.3-1-2.3-2.3v-7.8c0-1.3,1-2.3,2.3-2.3c0,0,0,0,0,0h62.4
	C740.7,373.3,741.7,374.4,741.7,375.7z"/>
<rect x="682.5" y="387.4" class="st3" width="52.2" height="2.3"/>
<path class="st3" d="M734.7,421.9c-17.5,7.2-35.2,7.3-53,0v-16.5c17.2-5.8,35.8-5.8,53,0V421.9z"/>
<circle id="fff0188c-9915-4c0d-8339-9317a77083e8" class="st4" cx="441.9" cy="99.2" r="70.7"/>
<path id="ac220ed6-7c3f-4d1e-8d82-3295770c496a-1528" class="st5" d="M507.9,38.2c-10.6-17.2-27.1-29.8-46.4-35.5l-8.7,6.3V0.9
	c-4.6-0.7-9.3-1-14-0.8l-7.5,6.8V0.6c-22.4,2.8-42.6,14.8-55.8,33.2c-16.3,23.4-19,56-3,79.7c4.4-13.5,9.7-26.1,14.1-39.6
	c3.4,0.5,6.9,0.5,10.4,0.1l5.3-12.5l1.5,11.9c16.5-1.4,41.1-4.6,56.8-7.5l-1.5-9.2l9.1,7.6c4.8-1.1,7.7-2.1,7.4-2.9
	c11.7,18.8,25.9,30.8,37.6,49.6C517.7,84.5,522.8,62.5,507.9,38.2z"/>
<linearGradient id="SVGID_1_" gradientUnits="userSpaceOnUse" x1="340.6471" y1="287.8469" x2="597.2629" y2="435.6891">
	<stop  offset="8.664200e-02" style="stop-color:#CB30A7"/>
	<stop  offset="0.7744" style="stop-color:#3576E1"/>
	<stop  offset="1" style="stop-color:#3E8925"/>
</linearGradient>
<path class="st6" d="M593.8,280.9c-2.4-14.6-4.9-29.5-11.7-42.7c-4.5-8.6-11.6-16.8-21.1-18.6c-1.9-0.2-3.7-0.6-5.5-1.3
	c-2.8-1.3-40.4-22.8-46.4-26.6c-5.1-3.2-13.2-9.2-17.3-9.2c-4.1-0.1-19.9,3.6-81.4-1.2c0,0-16.9,6.7-30,14.7
	c-0.2-0.1-63.9,34.1-66.3,34c-4.5-0.2-8.7,2.7-11.3,6.4c-2.6,3.7-3.8,8.2-5.1,12.5c13.9,31,26.6,62,40.5,92.9c0.7,1.2,1,2.5,1,3.8
	c-0.3,1.4-0.9,2.7-1.7,3.8c-6.8,11-6.6,24.7-5.9,37.6c0.7,12.9,1.7,26.5-4.1,38c-1.6,3.2-3.6,6.1-5.1,9.2
	c-3.5,7.2-4.7,30.1-2.7,37.8l255.1,7.3C569.4,464.6,593.8,280.9,593.8,280.9z"/>
<path id="bb46eb08-8e3e-4ac5-913b-26d221d967b9-1529" class="st7" d="M275.6,343.4c-0.5,3.7-0.6,7.4-0.2,11.1l3.7,52.5
	c0.3,4.9,0.7,9.9,1.1,14.8c0.9,9.6,2.2,19.1,3.8,28.6c0.1,2.8,2.4,5,5.2,4.9c16.1,3.4,32.7,3.3,49.2,2.3c25.1-1.4,89.2-4,93.1-9.1
	s1.6-13.3-3.5-17.4S338.4,417,338.4,417c0.8-6.6,3.3-12.7,5.7-18.9c4.3-11,8.2-22.4,8.3-34.3s-4.4-24.2-14.1-31
	c-8-5.6-18.2-6.6-27.9-6.4c-7.1,0.2-19.3-1.5-25.7,1.3C279.5,329.9,276.6,338.4,275.6,343.4z"/>
<linearGradient id="efe93a1e-ccdd-49fd-af5f-e26394aa0937-1530_00000150089350547794170150000004857368316470294199_" gradientUnits="userSpaceOnUse" x1="279.0789" y1="280.2743" x2="360.5549" y2="327.2145">
	<stop  offset="8.664200e-02" style="stop-color:#CB30A7"/>
	<stop  offset="0.7744" style="stop-color:#3576E1"/>
	<stop  offset="1" style="stop-color:#3E8925"/>
</linearGradient>
<path id="efe93a1e-ccdd-49fd-af5f-e26394aa0937-1530" style="fill:url(#efe93a1e-ccdd-49fd-af5f-e26394aa0937-1530_00000150089350547794170150000004857368316470294199_);" d="
	M296.9,250c-1.2,1.3-2.2,2.8-2.8,4.5c-10.3,23.2-16.4,48-17.9,73.3c0,1.2-0.3,2.5-0.8,3.6c-0.6,0.7-1.2,1.4-1.9,2
	c-2.5,3-2.1,7.4,0.8,9.9h0c0.1,0.1,0.2,0.2,0.4,0.3c2.1-4,7.1-5.2,11.6-5.6c21.4-1.7,42.3,8.3,63.7,7.5c-1.5-5.2-3.7-10.3-4.9-15.5
	c-5.5-23.5,8.2-49.1-0.2-71.7c-1.7-4.5-4.5-9-8.8-11c-1.8-0.7-3.7-1.2-5.7-1.5c-5.4-1-16.2-5.2-21.5-3.5c-1.9,0.6-2.7,2.4-4.3,3.5
	C302.2,247.4,299,248,296.9,250z"/>
<path id="a38c3c09-000b-42b7-8619-0229d8aff5e9-1531" class="st7" d="M594,327.7c-6.5-2.8-18.7-1.1-25.7-1.3
	c-9.7-0.2-20,0.8-27.9,6.4c-9.7,6.8-14.1,19.2-14.1,31s4,23.2,8.3,34.3c2.4,6.2,4.9,12.4,5.7,18.9c0,0-84.6,10-89.7,14.1
	s-7.4,12.3-3.5,17.4s126.2,10.2,142.3,6.8c2.8,0.1,5.1-2.1,5.2-4.9c1.6-9.5,2.9-19,3.8-28.6c0.5-4.9,0.8-9.9,1.1-14.8l3.7-52.5
	c0.4-3.7,0.4-7.4-0.2-11.1C602.1,338.4,599.1,329.9,594,327.7z"/>
<linearGradient id="bd3879bf-5d05-49be-b690-c4d97e29a2ab-1532_00000150794291732749020010000017172511589107644335_" gradientUnits="userSpaceOnUse" x1="521.819" y1="278.1106" x2="612.3284" y2="330.2551">
	<stop  offset="8.664200e-02" style="stop-color:#CB30A7"/>
	<stop  offset="0.7744" style="stop-color:#3576E1"/>
	<stop  offset="1" style="stop-color:#3E8925"/>
</linearGradient>
<path id="bd3879bf-5d05-49be-b690-c4d97e29a2ab-1532" style="fill:url(#bd3879bf-5d05-49be-b690-c4d97e29a2ab-1532_00000150794291732749020010000017172511589107644335_);" d="
	M574,245.8c-1.6-1.1-2.4-2.9-4.3-3.5c-5.2-1.7-16,2.5-21.5,3.5c-1.9,0.3-3.8,0.8-5.7,1.5c-4.4,2-7.2,6.4-8.8,11
	c-8.3,22.6,5.3,48.2-0.2,71.7c-1.2,5.3-3.4,10.3-4.9,15.5c21.5,0.8,42.3-9.2,63.7-7.5c4.5,0.3,9.5,1.6,11.6,5.6
	c0.1-0.1,0.2-0.2,0.4-0.3c3-2.5,3.3-6.9,0.8-9.9l0,0c-0.7-0.6-1.3-1.3-1.9-2c-0.6-1.1-0.9-2.3-0.8-3.6c-1.6-25.3-7.7-50.1-17.9-73.3
	c-0.6-1.7-1.6-3.2-2.8-4.5C579.7,248,576.4,247.4,574,245.8z"/>
<circle class="st7" cx="420.9" cy="438.8" r="19.1"/>
<circle class="st7" cx="463.2" cy="438.8" r="19.1"/>
<path class="st10" d="M580.9,481.8h-262c-6.4,0-11.5-5.2-11.5-11.5v-159c0-6.4,5.2-11.5,11.5-11.5h262c6.4,0,11.5,5.2,11.5,11.5v159
	C592.4,476.6,587.3,481.8,580.9,481.8z"/>
<circle id="bf1cdf42-3b4f-4239-91c9-f6802a29e918" class="st11" cx="449.2" cy="390.8" r="7.6"/>
<polygon class="st0" points="878.6,449.7 0,449.7 0,476.7 52,476.7 52,483 826.7,483 826.7,476.7 878.6,476.7 "/>
<path class="st12" d="M376.9,125.5L376.9,125.5c-11.4,0-20.6-10-20.6-22.2l0,0V92.2c0-12.3,9.2-22.2,20.6-22.2l0,0V125.5z"/>
<path class="st12" d="M508.1,70L508.1,70c11.4,0,20.6,10,20.6,22.2v11.1c0,12.3-9.2,22.2-20.6,22.2l0,0V70z"/>
<path class="st12" d="M518.9,94h-3.3c0-44.7-33.7-81.1-75-81.1c-41.4,0-75,36.4-75,81.1h-3.3c0-46.7,35.1-84.6,78.3-84.6
	C483.7,9.3,518.9,47.3,518.9,94z"/>
</svg>
