<?xml version="1.0" encoding="utf-8"?>
<!-- Generator: Adobe Illustrator 27.9.0, SVG Export Plug-In . SVG Version: 6.00 Build 0)  -->
<svg version="1.1" id="Lager_1" xmlns="http://www.w3.org/2000/svg" xmlns:xlink="http://www.w3.org/1999/xlink" x="0px" y="0px"
	 viewBox="0 0 833.2 633.1" style="enable-background:new 0 0 833.2 633.1;" xml:space="preserve">
<style type="text/css">
	.st0{fill:#F2F2F2;}
	.st1{fill:#3F3D56;}
	.st2{fill:#2F2E41;}
	.st3{fill:#FFB6B6;}
	.st4{fill:#A0616A;}
	.st5{fill:url(#SVGID_1_);}
	.st6{fill:url(#SVGID_00000076567334358609775080000001712471777992165556_);}
	.st7{fill:#6C63FF;}
	.st8{fill:url(#SVGID_00000038389682535479976880000002735875795531178656_);}
	.st9{fill:#FFB8B8;}
	.st10{fill:url(#SVGID_00000062909618201256962390000002523451765828388774_);}
	.st11{fill:url(#SVGID_00000150818290971780106350000011696475483198319519_);}
	.st12{fill:#FFFFFF;}
	.st13{fill:#3576E1;}
</style>
<path class="st0" d="M770.9,575.5c-27.3,20.8-60.6,41.8-93.3,51.8c-9.4,2.9-19.2,4.8-29,5.6c-9.2,0.7-18.5,0-27.4-2.1
	c-23.6-5.9-45.5-16.2-66.7-28.2c-6.9-3.9-13.8-8-20.6-12.2c-11.1-6.9-22.1-14-33.1-20.9c-1.7-1-3.3-2.1-4.9-3.1h0
	c-2.7-1.7-5.3-3.3-8-4.9c-0.5-0.3-0.9-0.6-1.4-0.9c-5.1-3.1-10.2-6-15.4-9c-0.6-0.3-1.3-0.7-1.9-1.1c-10.1-5.6-20.5-10.7-31.1-15.2
	c-7-2.9-14-5.6-21.2-7.8h0c-2.7-0.9-5.5-1.7-8.2-2.4c-8.2-2.3-16.6-3.9-25.1-4.9c-11.7-1.4-23.5-1.3-35.2,0.3
	c-0.8,0.1-1.6,0.2-2.4,0.3c-31.6,5.1-60.4,22.1-92.2,26.1c-1,0.1-2,0.2-3.1,0.3c-0.4,0-0.9,0.1-1.3,0.1c-9.2,0.8-18.5,0.6-27.7-0.7
	c-25.6-3.4-50.6-13.9-73.1-27.1c-52.5-30.9-95.1-78.4-121-133.4c-4.4-9.4-8.4-19.1-11.8-28.9c-9.6-27.3-14.9-55.9-15.7-84.9
	C-2.4,172,54.7,71.3,144.2,25.9c89.5-45.4,207.4-30.4,279.6,39.4c43.8,42.3,69.2,99.6,102.1,150.8c33,51.2,79.8,100.1,140.3,107.6
	c30.8,3.8,63-3.5,92.5,6C775,335,789,345.1,800.2,358c7.5,8.8,13.9,18.5,18.8,29c3.6,7.6,6.5,15.5,8.7,23.5c0.4,1.5,0.8,3,1.2,4.5
	C843.6,475.1,820.1,538,770.9,575.5z"/>
<path class="st1" d="M185.2,466.8h94c14.1,0,25.5,11.4,25.5,25.5v0c0,14.1-11.4,25.5-25.5,25.5h-94c-14.1,0-25.5-11.4-25.5-25.5v0
	C159.7,478.2,171.1,466.8,185.2,466.8z"/>
<path class="st1" d="M250.7,504.8v42.4c-9.7,0.9-19.4,0.7-29-0.6v-41.9H250.7z"/>
<path class="st2" d="M348.3,520.4c-0.8,0.1-1.6,0.2-2.4,0.3c-31.6,5.1-60.4,22.1-92.2,26.1c-1,0.1-2,0.2-3.1,0.3
	c-0.4,0-0.9,0.1-1.3,0.1c-7.8-7.6-15.5-15.7-22.8-24c-4-4.5-7.8-9.2-11.4-13.8c-9.3-12.1-17.2-24.5-22.4-36.7
	c0.5-5.8-3.1-19.4-4.9-29.7l0,0c-0.7-4.3-1.1-8.1-0.8-10.6c2.1-14,13.6-12.4,17.1-26.2c3.2-2.6,6.6-5,10.1-7.1
	c0.6-0.3,1.2-0.7,1.8-1l38.2-26.4l14.6,14.3l22.2,21.8l24.1,23.6l-20.4,20.7c0,0,17.1,19.7,37,45.9
	C337.2,505.1,342.8,512.6,348.3,520.4z"/>
<path class="st1" d="M677.7,504.8v122.5c-9.4,2.9-19.2,4.8-29,5.6V504.8L677.7,504.8z"/>
<path class="st1" d="M621.2,494.8h94c14.1,0,25.5,11.4,25.5,25.5l0,0c0,14.1-11.4,25.5-25.5,25.5h-94c-14.1,0-25.5-11.4-25.5-25.5
	l0,0C595.7,506.2,607.1,494.8,621.2,494.8z"/>
<path class="st3" d="M486.5,560.5c-5.1-3.1-10.2-6-15.4-9c-0.6-0.3-1.3-0.7-1.9-1.1l3.4-1.5l9.3-4l0.1,0l0.1,0.3L486.5,560.5z"/>
<path class="st2" d="M500.9,569.4c-1.7-1-3.3-2.1-4.9-3.1h0c-2.7-1.7-5.3-3.3-8-4.9c-0.5-0.3-0.9-0.6-1.4-0.9
	c-5.1-3.1-10.2-6-15.4-9c-0.6-0.3-1.3-0.7-1.9-1.1c-10.1-5.6-20.5-10.7-31.1-15.2c-7-2.9-14-5.6-21.2-7.8h0l-5.6-9.4L386,475.7
	l-5.5-9.3c0,0-18.9,5.6-45.7,11c-9.8,2-20.5,3.9-31.8,5.5c-12.1,1.7-24.8,3.1-37.4,3.8c-6,0.3-12,0.5-17.9,0.4
	c-15.2-0.1-29.9-1.5-42.7-4.9c-4.3-4-17.2-9.5-26.4-14.5h0c-3.9-2.1-7.1-4.1-8.8-5.9c-9.7-10.3-1.4-18.3-10.1-29.6
	c-0.1-4.1,0.1-8.2,0.6-12.3c0.1-0.7,0.2-1.4,0.3-2.1l2.7-46.4l20.3-2.7l30.9-4.1l33.4-4.4l3.7,28.8c0,0,26-1.3,59-0.9
	c53,0.7,123.8,6,133.5,28.7c0.9,2.1,1.8,4.3,2.7,6.4c2.1,5.1,4.3,10.3,6.4,15.5c7.6,18.8,14.9,37.8,21.5,55.7
	c4.1,11.2,8,21.9,11.6,32c2.9,8.1,5.5,15.8,8,22.8c2.2,6.4,4.2,12.4,6,17.7C500.3,567.8,500.6,568.6,500.9,569.4z"/>
<path class="st4" d="M314.3,288.5l-64.1-54.4l41.7-42.2l29.1,47.6L428.8,261c9.2-6.9,22.3-5.1,29.3,4.1c6.9,9.2,5.1,22.3-4.1,29.3
	c-8.7,6.5-20.9,5.3-28.1-2.7L314.3,288.5z"/>
<linearGradient id="SVGID_1_" gradientUnits="userSpaceOnUse" x1="198.9975" y1="150.2663" x2="324.8974" y2="253.7128">
	<stop  offset="0" style="stop-color:#3E8925"/>
	<stop  offset="0.2602" style="stop-color:#3576E1"/>
	<stop  offset="0.7022" style="stop-color:#CB30A7"/>
</linearGradient>
<path class="st5" d="M193.7,162.6c-7.4,24.1,63.1,81.5,63.1,81.5c0.8-5.8,40.8,44.1,43.5,39.6c7.7-12.8,16.2-44.6,25.2-48.6
	c5.1-2.3-24.2-34.5-24.2-34.5s-14.9-19.8-34.6-44.8c-11.1-14.6-28.8-22.5-47.1-21C219.5,134.8,201.1,138.6,193.7,162.6z"/>
<circle class="st4" cx="224.8" cy="66" r="43.3"/>
<linearGradient id="SVGID_00000045596119157812074830000015003740973010097548_" gradientUnits="userSpaceOnUse" x1="108.3378" y1="199.6751" x2="338.8105" y2="389.0446">
	<stop  offset="0.2978" style="stop-color:#CB30A7"/>
	<stop  offset="0.7398" style="stop-color:#3576E1"/>
	<stop  offset="1" style="stop-color:#3E8925"/>
</linearGradient>
<path style="fill:url(#SVGID_00000045596119157812074830000015003740973010097548_);" d="M246.5,138c9.3,5.5,14.9,15.7,18.1,26.1
	c5.9,19.2,9.5,39.1,10.6,59.1l3.4,60.1l41.9,127.9c-36.3,30.7-172.9,7-172.9,7s-4.2-1.4,0-5.6s8.3-0.5,4.1-4.7s-1.3,0.5,0.1-3.7
	s0-1.4-1.4-2.8s10.8-14,10.8-14l-11.2-73.4l-14-148.1c16.8-21,50.5-33.3,50.5-33.3l8.7-15.7l43.6,3.5L246.5,138z"/>
<path class="st2" d="M260.5,43c3.4,2.5,5.9,6,7.1,10c0.5-6.5,0.5-13.1,0.1-19.7c-0.5-4.6-3.7-5.6-7.5-6.8c-3.4-1.1-7.2-2.3-8.2-6.8
	c-13.6-13.2-37.3-12.6-53.6-8c-8.9,2.5-14.1,5.8-14.5,7.7l-0.1,0.4l-0.4,0.2c-6.9,3.4-8.2,14.3-8.1,22.8c0.2,16,5.7,34.2,8.8,35.7
	c0.2,0.1,0.2,0,0.3,0l0,0c4.7-3.8,10.4,0.3,12.9,2.5c3.1-20.5,19.7-36.3,40.3-38.2c3.3-0.3,6.5-0.9,9.7-1.6c1.6-0.4,3.3-0.6,5-0.7
	C255.3,40.5,258.1,41.4,260.5,43z"/>
<path class="st7" d="M205.9,353.8l-13.3-6.8c-1.6-1.2-2-3.4-0.9-5.1c0.9-1.3,2.6-1.8,4.1-1.3l13.3,6.8c1.6,1.2,2,3.4,0.9,5.1
	C209.1,353.8,207.5,354.3,205.9,353.8L205.9,353.8z"/>
<path class="st4" d="M161.3,335.6l-21.8-81.2l58.3-11l-3.1,55.7l76.5,78.8c11.5-0.5,21.3,8.5,21.7,20s-8.5,21.3-20,21.7
	c-10.8,0.4-20.2-7.5-21.6-18.2L161.3,335.6z"/>
<linearGradient id="SVGID_00000030463349960272915960000000311631126149663652_" gradientUnits="userSpaceOnUse" x1="107.5112" y1="194.7693" x2="214.2153" y2="282.4434">
	<stop  offset="0.2978" style="stop-color:#CB30A7"/>
	<stop  offset="0.7398" style="stop-color:#3576E1"/>
	<stop  offset="1" style="stop-color:#3E8925"/>
</linearGradient>
<path style="fill:url(#SVGID_00000030463349960272915960000000311631126149663652_);" d="M133.6,163.5
	c-19.8,15.6,5.6,102.9,5.6,102.9c3.9-4.3,8.5,59.4,13.3,57.3c13.7-6.2,38.7-27.4,48.3-25.7c5.5,1-0.3-42.2-0.3-42.2
	s-1.1-24.7-3.1-56.5c-0.8-18.3-10.9-34.9-26.8-44C170.6,155.2,153.4,147.9,133.6,163.5z"/>
<path class="st1" d="M819,387l-791.4-0.9c-4.4-9.4-8.4-19.1-11.8-28.9l784.5,0.8C807.8,366.8,814.1,376.5,819,387z"/>
<path class="st3" d="M566.9,596.8c-4.1,2-8.2,3.9-12.4,5.7c-6.9-3.9-13.8-8-20.6-12.2l25.2-11.1L566.9,596.8z"/>
<path class="st2" d="M750.8,459c-4.1,5.5-8.3,10.9-12.7,16.2c-4,4.9-8.1,9.6-12.4,14.3c-1.8,1.9-3.5,3.9-5.3,5.8
	c-3.3,3.6-6.7,7.1-10.2,10.5c-6.3,2-18.9,5.4-32.5,8.7c-9.9,2.3-20.3,4.6-29,6c-4.9,0.9-9.8,1.4-14.8,1.6c-5.9,0-11.9-0.1-17.9-0.4
	c-6.8-0.4-13.6-0.9-20.3-1.6c-17.4-1.8-34.3-4.7-48.9-7.6c-5.3-1.1-10.4-2.1-15-3.2c-8.8-2-16.1-3.8-21.4-5.2
	c-6-1.6-9.4-2.6-9.4-2.6l-15,25l-7.8,13l-5.7,9.5l-1.5,2.5c-0.6-0.3-1.3-0.7-1.9-1.1c-10.1-5.6-20.5-10.7-31.1-15.2
	c-7-2.9-14-5.6-21.2-7.8h0c-2.7-0.9-5.5-1.7-8.2-2.4c0.9-2.3,1.7-4.6,2.6-7c1.6-4.4,3.3-8.8,5-13.2c3.7-9.6,7.5-19.4,11.4-29.2
	c3.2-8,6.5-16,9.8-23.8c1.5-3.6,4.6-6.8,9-9.6c2.1-1.3,4.2-2.5,6.5-3.5c12.4-5.7,30.8-9.4,51-11.7c1.7-0.2,3.3-0.4,5-0.6
	c16.7-1.8,34.5-2.7,51.1-3.1c8.3-0.2,16.3-0.3,23.8-0.3c2.4,0,4.8,0,7,0h0c6.2,0,11.8,0.1,16.8,0.2c1,0,1.9,0,2.8,0.1h0
	c0.6,0,1.2,0,1.8,0c10.9,0.3,17.6,0.6,17.6,0.6l2.6-20.3l0.5-4.1l0.5-3.9v0l0.1-0.5l0.4,0l7.2-0.1l60.5-1.2l33.1-0.7l-5.2,22.5
	l-8.7,37.1C721.8,458.7,751.1,454.1,750.8,459z"/>
<path class="st2" d="M574.4,593.1c-2.5,1.3-5,2.5-7.5,3.7c-4.1,2-8.2,3.9-12.4,5.7c-6.9-3.9-13.8-8-20.6-12.2
	c-11.1-6.9-22.1-14-33.1-20.9c-1.7-1-3.3-2.1-4.9-3.1h0c-4.5-6.7-9.2-13.8-13.8-21c-0.1-0.1-0.1-0.2-0.2-0.3
	c-1.2-1.8-2.4-3.7-3.6-5.6c-7.5-11.7-15-23.9-22.3-36.4l18.5-8.6l34.3-16l5.9-2.8l17,33.5l15.2,29.9l3.4,6.7L574.4,593.1z"/>
<path class="st9" d="M579.6,432.2l87.5-84.4l24.3-68.7l-35.8-15.6c-18.4,17.6-38.2,72.4-38.2,72.4l-60.2,76.6
	c-0.5,0.2-0.9,0.3-1.4,0.5c-8.7,3.8-12.7,14-8.8,22.7c3.8,8.7,14,12.7,22.7,8.8C574.8,442.5,578.5,437.8,579.6,432.2z"/>
<path class="st7" d="M645.5,271.3l45.4,14.4l0.2,0c16.9-2.8,30.9-30.4,39.7-53.1c6-15.5-1-33-16.1-40l0,0c-11-5-23.8-3.4-33.2,4.2
	l-23.3,19L645.5,271.3z"/>
<linearGradient id="SVGID_00000177451843214680414770000008922418441959356319_" gradientUnits="userSpaceOnUse" x1="620.5242" y1="265.1479" x2="783.6758" y2="399.2025">
	<stop  offset="0.2978" style="stop-color:#CB30A7"/>
	<stop  offset="0.7398" style="stop-color:#3576E1"/>
	<stop  offset="1" style="stop-color:#3E8925"/>
</linearGradient>
<path style="fill:url(#SVGID_00000177451843214680414770000008922418441959356319_);" d="M750.6,460l0.3-0.4
	c14.2-18.8-5.2-65.3-8.1-72l13.2-3.9l-2.3-25.1l-1.1-11.2l10.2-9.7l0-0.2l7-50.1l9.2-33.2c7.1-25.5-0.2-52.9-19-71.5l-18.8-18.7
	l-22.6-35.3l-37.8-1L667.3,152c-26.1,5.3-44.7,28.5-44.1,55.2l1.3,64.3l-13.6,79.7l-0.4,14.5l-13.3,14.1l2.5,14.2l-10,4l-4.9,20.2
	c-1.9,2.3-14.2,17.9-14.3,22.2c0,0.7,0.4,1.3,1.5,2c8,5.7,52.4,18,72.5,10.6c21.3-7.9,104.9,6.9,105.7,7.1L750.6,460z"/>
<circle class="st9" cx="696.5" cy="66.9" r="50.1"/>
<path class="st2" d="M690.4,117.7c7.8,0.1,15.5-0.4,23.2-1.6c7.6-1.5,24.6-14,29.3-21.5l0,0c3.5-5.6,5.8-14.3,7-20.6
	c3.5-16.9-0.4-34.5-10.7-48.4c-1.9-2.9-4.6-5.2-7.8-6.6c-0.3-0.1-0.6-0.2-0.9-0.3c-4.6-1.2-8.7-3.7-11.8-7.3c-0.6-0.7-1.3-1.4-2-2
	c-3.5-3-7.7-5.1-12.2-6.1c-7.3-1.9-17.8,0-31.2,5.7c-6.8,2.9-14.1,1.8-19.8,0.6c-0.6-0.1-1.3,0.1-1.8,0.6c-2.4,2.3-5.6,3.5-8.9,3.6
	c-2,0.1-4.2,2.9-6.7,6.6c-0.6,0.8-1.3,1.8-1.8,2.4l-0.1-1.1l-1.1,1.3c-5.9,6.5-5.4,16.6,1.1,22.5c1.8,1.6,3.8,2.8,6.1,3.5
	c2,0.5,4.1,0.9,6.3,1c1.3,0.1,2.6,0.2,3.9,0.5c8.3,1.7,15.1,7.6,17.9,15.6c1.2,3.3,4.8,5,8,3.8c0.5-0.2,1-0.4,1.4-0.7
	c2.7-2.1,6.2-2.7,9.5-1.7c1.4,0.8,2.5,2,3,3.5c0.7,1.6,1.9,3,3.4,4c5.1,2.7,5.5,14.4,3.7,24.2c-1.8,9.5-5.3,16.3-8.6,16.6
	c-2.5,0.3-2.8,0.4-3,0.9l-0.2,0.4l0.3,0.4C687.4,117.6,688.9,117.8,690.4,117.7z"/>
<path class="st9" d="M657.9,256.2l-19.3-38.5c-28,1.9-83.7,34.3-83.7,34.3l-105.3,22.3c-9.8-3.8-20.8,1.1-24.6,10.9
	c-3.8,9.8,1.1,20.8,10.9,24.6c6.4,2.4,13.6,1.3,18.8-3l133.9-9.6L657.9,256.2z"/>
<linearGradient id="SVGID_00000173842208641030301120000001633894506596953773_" gradientUnits="userSpaceOnUse" x1="699.3027" y1="179.5253" x2="618.1895" y2="230.9016">
	<stop  offset="0" style="stop-color:#CB30A7"/>
	<stop  offset="0.7398" style="stop-color:#3576E1"/>
	<stop  offset="1" style="stop-color:#3E8925"/>
</linearGradient>
<path style="fill:url(#SVGID_00000173842208641030301120000001633894506596953773_);" d="M650.1,262.5l50.5-37.5l8.9-32
	c3.5-12.8-0.6-26.6-10.5-35.4l0,0c-13.8-12.1-34.6-11.4-47.6,1.5c-19,19-40.6,45.4-36,63.7l0,0.2L650.1,262.5z"/>
<rect x="452.7" y="362.8" class="st12" width="135" height="18"/>
<rect x="107.7" y="362.8" class="st12" width="135" height="18"/>
<path class="st1" d="M258.4,276.2v85.7c0,2.3,1.8,4.1,4.1,4.1h127c2.3,0,4.1-1.8,4.1-4.1v-85.7c0-2.3-1.8-4.1-4.1-4.1h-127
	C260.3,272.1,258.4,273.9,258.4,276.2z"/>
<path class="st13" d="M261.4,277.3v83.6c0,1.2,1,2.2,2.2,2.2h124.9c1.2,0,2.2-1,2.2-2.2v-83.6c0-1.2-1-2.2-2.2-2.2H263.6
	C262.4,275.1,261.4,276.1,261.4,277.3z"/>
<path class="st2" d="M255.8,378.6c0.5,0.6,1.2,0.9,1.9,0.9h136c1.4,0,2.5-1.1,2.5-2.5c0-0.2,0-0.3-0.1-0.5l-2.1-10
	c-0.2-0.8-0.8-1.5-1.6-1.8c-0.3-0.1-0.6-0.2-0.9-0.2H259.8c-0.3,0-0.6,0.1-0.9,0.2c-0.8,0.3-1.4,1-1.6,1.8l-2.1,10
	C255.1,377.3,255.3,378,255.8,378.6z"/>
<path class="st1" d="M390.1,368.8h-3.2c-0.3,0-0.5-0.2-0.5-0.5v-1.5c0-0.3,0.2-0.5,0.5-0.5h3.2c0.3,0,0.5,0.2,0.5,0.5v1.5
	C390.6,368.6,390.4,368.8,390.1,368.8z"/>
<path class="st1" d="M381.8,368.8h-3.2c-0.3,0-0.5-0.2-0.5-0.5v-1.5c0-0.3,0.2-0.5,0.5-0.5h3.2c0.3,0,0.5,0.2,0.5,0.5v1.5
	C382.3,368.6,382,368.8,381.8,368.8z"/>
<path class="st1" d="M373.4,368.8h-3.2c-0.3,0-0.5-0.2-0.5-0.5v-1.5c0-0.3,0.2-0.5,0.5-0.5h3.2c0.3,0,0.5,0.2,0.5,0.5v1.5
	C373.9,368.6,373.7,368.8,373.4,368.8z"/>
<path class="st1" d="M365,368.8h-3.2c-0.3,0-0.5-0.2-0.5-0.5v-1.5c0-0.3,0.2-0.5,0.5-0.5h3.2c0.3,0,0.5,0.2,0.5,0.5v1.5
	C365.5,368.6,365.3,368.8,365,368.8z"/>
<path class="st1" d="M356.6,368.8h-3.2c-0.3,0-0.5-0.2-0.5-0.5v-1.5c0-0.3,0.2-0.5,0.5-0.5h3.2c0.3,0,0.5,0.2,0.5,0.5v1.5
	C357.1,368.6,356.9,368.8,356.6,368.8z"/>
<path class="st1" d="M348.3,368.8H345c-0.3,0-0.5-0.2-0.5-0.5v-1.5c0-0.3,0.2-0.5,0.5-0.5h3.2c0.3,0,0.5,0.2,0.5,0.5v1.5
	C348.7,368.6,348.5,368.8,348.3,368.8z"/>
<path class="st1" d="M339.9,368.8h-3.2c-0.3,0-0.5-0.2-0.5-0.5v-1.5c0-0.3,0.2-0.5,0.5-0.5h3.2c0.3,0,0.5,0.2,0.5,0.5v1.5
	C340.4,368.6,340.2,368.8,339.9,368.8z"/>
<path class="st1" d="M331.5,368.8h-3.2c-0.3,0-0.5-0.2-0.5-0.5v-1.5c0-0.3,0.2-0.5,0.5-0.5h3.2c0.3,0,0.5,0.2,0.5,0.5v1.5
	C332,368.6,331.8,368.8,331.5,368.8z"/>
<path class="st1" d="M323.1,368.8h-3.2c-0.3,0-0.5-0.2-0.5-0.5v-1.5c0-0.3,0.2-0.5,0.5-0.5h3.2c0.3,0,0.5,0.2,0.5,0.5v1.5
	C323.6,368.6,323.4,368.8,323.1,368.8z"/>
<path class="st1" d="M314.8,368.8h-3.2c-0.3,0-0.5-0.2-0.5-0.5v-1.5c0-0.3,0.2-0.5,0.5-0.5h3.2c0.3,0,0.5,0.2,0.5,0.5v1.5
	C315.2,368.6,315,368.8,314.8,368.8z"/>
<path class="st1" d="M306.4,368.8h-3.2c-0.3,0-0.5-0.2-0.5-0.5v-1.5c0-0.3,0.2-0.5,0.5-0.5h3.2c0.3,0,0.5,0.2,0.5,0.5v1.5
	C306.9,368.6,306.6,368.8,306.4,368.8z"/>
<path class="st1" d="M298,368.8h-3.2c-0.3,0-0.5-0.2-0.5-0.5v-1.5c0-0.3,0.2-0.5,0.5-0.5h3.2c0.3,0,0.5,0.2,0.5,0.5v1.5
	C298.5,368.6,298.3,368.8,298,368.8z"/>
<path class="st1" d="M289.6,368.8h-3.2c-0.3,0-0.5-0.2-0.5-0.5v-1.5c0-0.3,0.2-0.5,0.5-0.5h3.2c0.3,0,0.5,0.2,0.5,0.5v1.5
	C290.1,368.6,289.9,368.8,289.6,368.8z"/>
<path class="st1" d="M281.2,368.8H278c-0.3,0-0.5-0.2-0.5-0.5v-1.5c0-0.3,0.2-0.5,0.5-0.5h3.2c0.3,0,0.5,0.2,0.5,0.5v1.5
	C281.7,368.6,281.5,368.8,281.2,368.8z"/>
<path class="st1" d="M272.9,368.8h-3.2c-0.3,0-0.5-0.2-0.5-0.5v-1.5c0-0.3,0.2-0.5,0.5-0.5h3.2c0.3,0,0.5,0.2,0.5,0.5v1.5
	C273.4,368.6,273.1,368.8,272.9,368.8z"/>
<path class="st1" d="M264.5,368.8h-3.2c-0.3,0-0.5-0.2-0.5-0.5v-1.5c0-0.3,0.2-0.5,0.5-0.5h3.2c0.3,0,0.5,0.2,0.5,0.5v1.5
	C265,368.6,264.8,368.8,264.5,368.8z"/>
<path class="st1" d="M390.2,373H387c-0.3,0-0.5-0.2-0.5-0.5V371c0-0.3,0.2-0.5,0.5-0.5h3.2c0.3,0,0.5,0.2,0.5,0.5v1.5
	C390.7,372.8,390.5,373,390.2,373z"/>
<path class="st1" d="M381.9,373h-3.2c-0.3,0-0.5-0.2-0.5-0.5V371c0-0.3,0.2-0.5,0.5-0.5h3.2c0.3,0,0.5,0.2,0.5,0.5v1.5
	C382.4,372.8,382.1,373,381.9,373z"/>
<path class="st1" d="M373.5,373h-3.2c-0.3,0-0.5-0.2-0.5-0.5V371c0-0.3,0.2-0.5,0.5-0.5h3.2c0.3,0,0.5,0.2,0.5,0.5v1.5
	C374,372.8,373.8,373,373.5,373z"/>
<path class="st1" d="M365.1,373h-3.2c-0.3,0-0.5-0.2-0.5-0.5V371c0-0.3,0.2-0.5,0.5-0.5h3.2c0.3,0,0.5,0.2,0.5,0.5v1.5
	C365.6,372.8,365.4,373,365.1,373z"/>
<path class="st1" d="M356.7,373h-3.2c-0.3,0-0.5-0.2-0.5-0.5V371c0-0.3,0.2-0.5,0.5-0.5h3.2c0.3,0,0.5,0.2,0.5,0.5v1.5
	C357.2,372.8,357,373,356.7,373z"/>
<path class="st1" d="M348.4,373h-3.2c-0.3,0-0.5-0.2-0.5-0.5V371c0-0.3,0.2-0.5,0.5-0.5h3.2c0.3,0,0.5,0.2,0.5,0.5v1.5
	C348.8,372.8,348.6,373,348.4,373z"/>
<path class="st1" d="M340,373h-3.2c-0.3,0-0.5-0.2-0.5-0.5V371c0-0.3,0.2-0.5,0.5-0.5h3.2c0.3,0,0.5,0.2,0.5,0.5v1.5
	C340.5,372.8,340.2,373,340,373z"/>
<path class="st1" d="M331.6,373h-3.2c-0.3,0-0.5-0.2-0.5-0.5V371c0-0.3,0.2-0.5,0.5-0.5h3.2c0.3,0,0.5,0.2,0.5,0.5v1.5
	C332.1,372.8,331.9,373,331.6,373z"/>
<path class="st1" d="M323.2,373H320c-0.3,0-0.5-0.2-0.5-0.5V371c0-0.3,0.2-0.5,0.5-0.5h3.2c0.3,0,0.5,0.2,0.5,0.5v1.5
	C323.7,372.8,323.5,373,323.2,373z"/>
<path class="st1" d="M314.8,373h-3.2c-0.3,0-0.5-0.2-0.5-0.5V371c0-0.3,0.2-0.5,0.5-0.5h3.2c0.3,0,0.5,0.2,0.5,0.5v1.5
	C315.3,372.8,315.1,373,314.8,373z"/>
<path class="st1" d="M306.5,373h-3.2c-0.3,0-0.5-0.2-0.5-0.5V371c0-0.3,0.2-0.5,0.5-0.5h3.2c0.3,0,0.5,0.2,0.5,0.5v1.5
	C307,372.8,306.7,373,306.5,373z"/>
<path class="st1" d="M298.1,373h-3.2c-0.3,0-0.5-0.2-0.5-0.5V371c0-0.3,0.2-0.5,0.5-0.5h3.2c0.3,0,0.5,0.2,0.5,0.5v1.5
	C298.6,372.8,298.4,373,298.1,373z"/>
<path class="st1" d="M289.7,373h-3.2c-0.3,0-0.5-0.2-0.5-0.5V371c0-0.3,0.2-0.5,0.5-0.5h3.2c0.3,0,0.5,0.2,0.5,0.5v1.5
	C290.2,372.8,290,373,289.7,373z"/>
<path class="st1" d="M281.3,373h-3.2c-0.3,0-0.5-0.2-0.5-0.5V371c0-0.3,0.2-0.5,0.5-0.5h3.2c0.3,0,0.5,0.2,0.5,0.5v1.5
	C281.8,372.8,281.6,373,281.3,373z"/>
<path class="st1" d="M273,373h-3.2c-0.3,0-0.5-0.2-0.5-0.5V371c0-0.3,0.2-0.5,0.5-0.5h3.2c0.3,0,0.5,0.2,0.5,0.5v1.5
	C273.5,372.8,273.2,373,273,373z"/>
<path class="st1" d="M264.6,373h-3.2c-0.3,0-0.5-0.2-0.5-0.5V371c0-0.3,0.2-0.5,0.5-0.5h3.2c0.3,0,0.5,0.2,0.5,0.5v1.5
	C265.1,372.8,264.9,373,264.6,373z"/>
<path class="st1" d="M350,378.1h-32.5c-0.3,0-0.5-0.2-0.5-0.5V376c0-0.3,0.2-0.5,0.5-0.5H350c0.3,0,0.5,0.2,0.5,0.5v1.5
	C350.5,377.8,350.3,378.1,350,378.1z"/>
</svg>
