<?xml version="1.0" encoding="UTF-8"?><svg id="Lager_1" xmlns="http://www.w3.org/2000/svg" xmlns:xlink="http://www.w3.org/1999/xlink" viewBox="0 0 2469 611.9"><defs><style>.cls-1{letter-spacing:0em;}.cls-2{letter-spacing:0em;}.cls-3{font-family:Continuo, Continuo;font-size:200px;}.cls-4{letter-spacing:0em;}.cls-5{letter-spacing:0em;}.cls-6{letter-spacing:0em;}.cls-7{fill:#1d1d1b;}.cls-7,.cls-8,.cls-9,.cls-10{stroke-width:0px;}.cls-11{letter-spacing:0em;}.cls-8{fill:url(#Namnlös_övertoning_34);}.cls-9{fill:url(#Namnlös_övertoning_33);}.cls-10{fill:url(#Namnlös_övertoning_32);}</style><linearGradient id="Namnlös_övertoning_34" x1="105.7" y1="343" x2="380.4" y2="415.8" gradientUnits="userSpaceOnUse"><stop offset=".1" stop-color="#ce00e9"/><stop offset=".5" stop-color="#3576e1"/><stop offset="1" stop-color="#3e8925"/></linearGradient><linearGradient id="Namnlös_övertoning_33" x1="142.8" y1="331.3" x2="401.3" y2="388.2" gradientUnits="userSpaceOnUse"><stop offset="0" stop-color="#ce00e9"/><stop offset=".7" stop-color="#3576e1"/><stop offset="1" stop-color="#3e8925"/></linearGradient><linearGradient id="Namnlös_övertoning_32" x1="139.5" y1="302.4" x2="402.1" y2="361.4" gradientUnits="userSpaceOnUse"><stop offset="0" stop-color="#ce00e9"/><stop offset=".8" stop-color="#3576e1"/><stop offset="1" stop-color="#3e8925"/></linearGradient></defs><path class="cls-7" d="m338,433.5c-20.2,12-43.7,19-68.9,19s-48.8-6.9-68.9-19h137.8Z"/><path class="cls-7" d="m371.5,405.3c-7.1,8.3-15.2,15.8-24.1,22.1h-156.4c-8.9-6.4-17-13.8-24.1-22.1h204.7Z"/><path class="cls-8" d="m390,377.1c-3.8,7.8-8.4,15.2-13.7,22.1h-214.5c-5.2-6.9-9.8-14.3-13.7-22.1h241.8Z"/><path class="cls-9" d="m400.1,348.9c-1.8,7.7-4.3,15-7.3,22.1h-247.4c-3-7.1-5.5-14.5-7.3-22.1h262.1Z"/><path class="cls-10" d="m403.7,320.7c-.1,7.5-.9,14.9-2.3,22.1H136.8c-1.3-7.2-2.1-14.6-2.3-22.1h269.2Z"/><path class="cls-7" d="m403.7,314.6H134.5c.2-7.5,1-14.9,2.4-22.1h264.5c1.4,7.2,2.2,14.6,2.4,22.1Z"/><path class="cls-7" d="m400,286.4H138.2c1.8-7.7,4.3-15,7.4-22.1h247.1c3.1,7.1,5.6,14.5,7.4,22.1Z"/><path class="cls-7" d="m389.8,258.1h-241.4c3.9-7.8,8.5-15.2,13.8-22.1h213.9c5.3,6.9,9.9,14.3,13.8,22.1Z"/><path class="cls-7" d="m371.1,229.9h-203.9c7.2-8.3,15.4-15.8,24.4-22.1h155.2c9,6.4,17.2,13.8,24.4,22.1Z"/><path class="cls-7" d="m337.3,201.7h-136.4c20-11.8,43.3-18.5,68.2-18.5s48.2,6.7,68.2,18.5Z"/><text class="cls-3" transform="translate(419.8 401)"><tspan class="cls-1" x="0" y="0">Y</tspan><tspan class="cls-11" x="121.4" y="0">RK</tspan><tspan class="cls-5" x="370" y="0">E</tspan><tspan class="cls-2" x="481.4" y="0">S</tspan><tspan class="cls-6" x="597.8" y="0">V</tspan><tspan class="cls-2" x="692.8" y="0">Ä</tspan><tspan x="804.8" y="0">GLE</tspan><tspan class="cls-4" x="1156.6" y="0">D</tspan><tspan class="cls-5" x="1285" y="0">A</tspan><tspan x="1400" y="0">RN</tspan></text></svg>