<?xml version="1.0" encoding="UTF-8"?><svg id="Lager_1" xmlns="http://www.w3.org/2000/svg" xmlns:xlink="http://www.w3.org/1999/xlink" viewBox="0 0 789.5 669.9"><defs><style>.cls-1{fill:url(#Namnlös_övertoning_34-2);}.cls-1,.cls-2,.cls-3,.cls-4,.cls-5,.cls-6,.cls-7,.cls-8,.cls-9,.cls-10{stroke-width:0px;}.cls-2{fill:url(#Namnlös_övertoning_34-3);}.cls-3{fill:url(#Namnlös_övertoning_32-6);}.cls-4{fill:url(#Namnlös_övertoning_32-5);}.cls-5{fill:url(#Namnlös_övertoning_32-4);}.cls-6{fill:url(#Namnlös_övertoning_32-3);}.cls-7{fill:url(#Namnlös_övertoning_32-2);}.cls-8{fill:url(#Namnlös_övertoning_34);}.cls-9{fill:url(#Namnlös_övertoning_33);}.cls-10{fill:url(#Namnlös_övertoning_32);}</style><linearGradient id="Namnlös_övertoning_34" x1="277.1" y1="517.7" x2="509.9" y2="579.4" gradientUnits="userSpaceOnUse"><stop offset=".1" stop-color="#ce00e9"/><stop offset=".5" stop-color="#3576e1"/><stop offset="1" stop-color="#3e8925"/></linearGradient><linearGradient id="Namnlös_övertoning_34-2" x1="218.4" y1="460.5" x2="564.1" y2="552.2" xlink:href="#Namnlös_övertoning_34"/><linearGradient id="Namnlös_övertoning_34-3" x1="99.4" y1="380.5" x2="595.9" y2="512.1" xlink:href="#Namnlös_övertoning_34"/><linearGradient id="Namnlös_övertoning_33" x1="166.3" y1="359.4" x2="633.7" y2="462.2" gradientUnits="userSpaceOnUse"><stop offset="0" stop-color="#ce00e9"/><stop offset=".7" stop-color="#3576e1"/><stop offset="1" stop-color="#3e8925"/></linearGradient><linearGradient id="Namnlös_övertoning_32" x1="160.5" y1="307" x2="635.2" y2="413.6" gradientUnits="userSpaceOnUse"><stop offset="0" stop-color="#ce00e9"/><stop offset=".8" stop-color="#3576e1"/><stop offset="1" stop-color="#3e8925"/></linearGradient><linearGradient id="Namnlös_övertoning_32-2" x1="162.8" y1="257.4" x2="630.5" y2="362.5" xlink:href="#Namnlös_övertoning_32"/><linearGradient id="Namnlös_övertoning_32-3" x1="173.4" y1="209.8" x2="624" y2="311.1" xlink:href="#Namnlös_övertoning_32"/><linearGradient id="Namnlös_övertoning_32-4" x1="190.7" y1="164" x2="606.1" y2="257.3" xlink:href="#Namnlös_övertoning_32"/><linearGradient id="Namnlös_övertoning_32-5" x1="222.5" y1="122.3" x2="573.4" y2="201.1" xlink:href="#Namnlös_övertoning_32"/><linearGradient id="Namnlös_övertoning_32-6" x1="278.7" y1="93" x2="513.3" y2="145.7" xlink:href="#Namnlös_övertoning_32"/></defs><path class="cls-8" d="m519.3,544.1c-36.4,21.8-79,34.3-124.6,34.3s-88.1-12.5-124.6-34.3h249.1Z"/><path class="cls-1" d="m579.7,493.1c-12.8,15-27.5,28.5-43.6,40H253.4c-16.1-11.5-30.8-25-43.6-40h370Z"/><path class="cls-2" d="m613.3,442.1c-7,14.2-15.2,27.5-24.7,40H200.9c-9.5-12.5-17.7-25.8-24.7-40h437.2Z"/><path class="cls-9" d="m631.6,391.1c-3.3,13.8-7.7,27.2-13.2,40H171.1c-5.5-12.8-10-26.2-13.2-40h473.7Z"/><path class="cls-10" d="m638,340.1c-.3,13.6-1.7,27-4.1,40H155.5c-2.4-13-3.8-26.4-4.1-40h486.6Z"/><path class="cls-7" d="m638,329.1H151.4c.3-13.6,1.8-27,4.2-40h478.1c2.5,13,3.9,26.4,4.2,40Z"/><path class="cls-6" d="m631.4,278.1H158.1c3.3-13.8,7.8-27.2,13.4-40h446.6c5.6,12.8,10.1,26.2,13.4,40Z"/><path class="cls-5" d="m612.9,227.1H176.5c7-14.2,15.4-27.6,24.9-40h386.6c9.5,12.4,17.9,25.8,24.9,40Z"/><path class="cls-4" d="m579.1,176.1H210.4c13-15.1,27.8-28.5,44.1-40h280.5c16.3,11.5,31.1,24.9,44.1,40Z"/><path class="cls-3" d="m518,125.1h-246.5c36.2-21.3,78.3-33.5,123.2-33.5s87.1,12.2,123.2,33.5Z"/></svg>