<?xml version="1.0" encoding="UTF-8"?><svg id="Lager_1" xmlns="http://www.w3.org/2000/svg" xmlns:xlink="http://www.w3.org/1999/xlink" viewBox="0 0 751.8 669.9"><defs><style>.cls-1{fill:#1d1d1b;}.cls-1,.cls-2,.cls-3,.cls-4{stroke-width:0px;}.cls-2{fill:url(#Namnlös_övertoning_34);}.cls-3{fill:url(#Namnlös_övertoning_33);}.cls-4{fill:url(#Namnlös_övertoning_32);}</style><linearGradient id="Namnlös_övertoning_34" x1="80.5" y1="381.2" x2="577" y2="512.8" gradientUnits="userSpaceOnUse"><stop offset=".1" stop-color="#ce00e9"/><stop offset=".5" stop-color="#3576e1"/><stop offset="1" stop-color="#3e8925"/></linearGradient><linearGradient id="Namnlös_övertoning_33" x1="147.5" y1="360.1" x2="614.9" y2="462.8" gradientUnits="userSpaceOnUse"><stop offset="0" stop-color="#ce00e9"/><stop offset=".7" stop-color="#3576e1"/><stop offset="1" stop-color="#3e8925"/></linearGradient><linearGradient id="Namnlös_övertoning_32" x1="141.6" y1="307.6" x2="616.4" y2="414.3" gradientUnits="userSpaceOnUse"><stop offset="0" stop-color="#ce00e9"/><stop offset=".8" stop-color="#3576e1"/><stop offset="1" stop-color="#3e8925"/></linearGradient></defs><path class="cls-1" d="m500.5,544.7c-36.4,21.8-79,34.3-124.6,34.3s-88.1-12.5-124.6-34.3h249.1Z"/><path class="cls-1" d="m560.9,493.7c-12.8,15-27.5,28.5-43.6,40H234.5c-16.1-11.5-30.8-25-43.6-40h370Z"/><path class="cls-2" d="m594.5,442.7c-7,14.2-15.2,27.5-24.7,40H182c-9.5-12.5-17.7-25.8-24.7-40h437.2Z"/><path class="cls-3" d="m612.7,391.7c-3.3,13.8-7.7,27.2-13.2,40H152.2c-5.5-12.8-10-26.2-13.2-40h473.7Z"/><path class="cls-4" d="m619.2,340.7c-.3,13.6-1.7,27-4.1,40H136.7c-2.4-13-3.8-26.4-4.1-40h486.6Z"/><path class="cls-1" d="m619.2,329.7H132.6c.3-13.6,1.8-27,4.2-40h478.1c2.5,13,3.9,26.4,4.2,40Z"/><path class="cls-1" d="m612.6,278.7H139.2c3.3-13.8,7.8-27.2,13.4-40h446.6c5.6,12.8,10.1,26.2,13.4,40Z"/><path class="cls-1" d="m594.1,227.7H157.7c7-14.2,15.4-27.6,24.9-40h386.6c9.5,12.4,17.9,25.8,24.9,40Z"/><path class="cls-1" d="m560.2,176.7H191.6c13-15.1,27.8-28.5,44.1-40h280.5c16.3,11.5,31.1,24.9,44.1,40Z"/><path class="cls-1" d="m499.1,125.7h-246.5c36.2-21.3,78.3-33.5,123.2-33.5s87.1,12.2,123.2,33.5Z"/></svg>