<?xml version="1.0" encoding="UTF-8"?><svg id="Lager_1" xmlns="http://www.w3.org/2000/svg" xmlns:xlink="http://www.w3.org/1999/xlink" viewBox="0 0 774.12 669.9"><defs><style>.cls-1{fill:url(#Namnlös_övertoning_7);}.cls-1,.cls-2,.cls-3,.cls-4,.cls-5,.cls-6,.cls-7,.cls-8,.cls-9,.cls-10,.cls-11,.cls-12,.cls-13,.cls-14,.cls-15{stroke-width:0px;}.cls-2{fill:url(#Namnlös_övertoning_8);}.cls-3{fill:url(#Namnlös_övertoning_9);}.cls-4{fill:#f2f2f2;}.cls-5{fill:#2f2e41;}.cls-6{fill:#3f3d56;}.cls-7{fill:#cb30a7;}.cls-8{fill:#cacaca;}.cls-9{fill:#a0616a;}.cls-10{fill:#fff;}.cls-11{fill:#ffb6b6;}.cls-12{fill:#e6e6e6;}.cls-13{fill:url(#Namnlös_övertoning_9-3);}.cls-14{fill:url(#Namnlös_övertoning_9-2);}.cls-15{fill:url(#Namnlös_övertoning_7-2);}</style><linearGradient id="Namnlös_övertoning_8" x1="179.87" y1="340.39" x2="291.11" y2="419.85" gradientUnits="userSpaceOnUse"><stop offset="0" stop-color="#3e8925"/><stop offset=".02" stop-color="#3d8829"/><stop offset=".05" stop-color="#3d8737"/><stop offset=".07" stop-color="#3c844d"/><stop offset=".1" stop-color="#3a816c"/><stop offset=".13" stop-color="#387d95"/><stop offset=".15" stop-color="#3678c5"/><stop offset=".17" stop-color="#3576e1"/><stop offset=".8" stop-color="#cb30a7"/></linearGradient><linearGradient id="Namnlös_övertoning_7" x1="172.88" y1="346.91" x2="244.89" y2="398.35" gradientUnits="userSpaceOnUse"><stop offset=".2" stop-color="#cb30a7"/><stop offset=".83" stop-color="#3576e1"/><stop offset=".85" stop-color="#3678c5"/><stop offset=".87" stop-color="#387d95"/><stop offset=".9" stop-color="#3a816c"/><stop offset=".93" stop-color="#3c844d"/><stop offset=".95" stop-color="#3d8737"/><stop offset=".98" stop-color="#3d8829"/><stop offset="1" stop-color="#3e8925"/></linearGradient><linearGradient id="Namnlös_övertoning_7-2" x1="136.53" y1="349.58" x2="229.72" y2="416.15" xlink:href="#Namnlös_övertoning_7"/><linearGradient id="Namnlös_övertoning_9" x1="500.86" y1="249.34" x2="652.5" y2="357.66" gradientUnits="userSpaceOnUse"><stop offset=".2" stop-color="#cb30a7"/><stop offset=".83" stop-color="#3576e1"/><stop offset=".85" stop-color="#3678c5"/><stop offset=".87" stop-color="#387d95"/><stop offset=".9" stop-color="#3a816c"/><stop offset=".93" stop-color="#3c844d"/><stop offset=".95" stop-color="#3d8737"/><stop offset=".98" stop-color="#3d8829"/><stop offset="1" stop-color="#3e8925"/></linearGradient><linearGradient id="Namnlös_övertoning_9-2" x1="590.99" y1="253" x2="676.11" y2="313.8" xlink:href="#Namnlös_övertoning_9"/><linearGradient id="Namnlös_övertoning_9-3" x1="489.41" y1="265.36" x2="545.18" y2="305.19" xlink:href="#Namnlös_övertoning_9"/></defs><path class="cls-4" d="m611.3,55.32c-.87-.58-1.75-1.13-2.62-1.69-25.15-16.08-52.1-29.15-80.31-38.93l-6.54,90.22h-41.46V1.53c-2.61-.54-5.24-1.05-7.87-1.53v104.92h-49.27c-56.48,0-102.27-45.79-102.27-102.27h0c-2.64.57-5.26,1.18-7.88,1.83v100.44h-40.13l-6.23-86.03c-28.99,11.12-56.5,25.73-81.94,43.53-.44.3-.88.61-1.31.91-2.21,1.55-4.39,3.13-6.56,4.73v344.19h118.27l-2.09-28.95-11.5-158.95h231.59l-11.5,158.95-2.09,28.95h116.96V58.8c-1.74-1.18-3.49-2.34-5.25-3.48Zm-298.22,142.78h-33.39l-6.17-85.3h39.56v85.3Zm159.42,0h-56.08v-1.69c0-3.41-2.77-6.18-6.18-6.18h-24.39c-3.41,0-6.18,2.76-6.18,6.18h0v1.69h-58.71v-85.3h151.54v85.3Zm7.87,0v-85.3h40.89l-6.17,85.3h-34.72Z"/><path class="cls-4" d="m739.74,625.55l.78-17.58c8.15-4.36,17.24-6.66,26.48-6.7-12.72,10.4-11.13,30.44-19.75,44.42-5.51,8.79-14.73,14.6-25.04,15.78l-10.64,6.52c-2.96-16.47,1.45-33.42,12.06-46.36,2.98-3.56,6.39-6.73,10.16-9.44,2.55,6.72,5.95,13.37,5.95,13.37Z"/><path class="cls-4" d="m168.79,606.29l-25.68-7.78c-3.37-13.68-3.34-27.98.07-41.65,10.58,22.71,40.79,27.91,58.21,45.92,10.92,11.46,16.03,27.26,13.89,42.95l5.62,18.18c-25.46-1.84-48.84-14.73-63.98-35.28-4.14-5.74-7.54-11.98-10.12-18.57,10.89-1.24,22-3.76,22-3.76Z"/><path class="cls-12" d="m719.76,665.11c0,.53-.22,1.04-.59,1.42-.37.37-.88.58-1.41.58h-8.04c-1.1,0-2-.89-2-1.99h0v-243.15c0-5.36-1.8-9.71-4.01-9.72H101.22c-2.22.01-4.01,4.36-4.02,9.72v241.65c0,1.03-.79,1.89-1.81,1.99-1.62.16-3.24.3-4.85.43-.04,0-.08.01-.12.01-.88.08-1.76.14-2.64.21h-.01c-.46-.83-.9-1.68-1.35-2.53-.14-.29-.22-.61-.22-.93v-253.44c0-1.48.06-2.97.16-4.44.14-2.02.39-4.03.75-6.02,1.69-9.29,5.51-15.58,9.85-15.6h611c.63,0,1.26.14,1.84.39.85.38,1.62.92,2.27,1.59.88.91,1.63,1.94,2.23,3.05,2.14,3.77,3.67,9.39,4.21,15.93,0,.06.01.12.01.18.14,1.62.21,3.27.2,4.92l.14,21.43.09,12.78.27,40.1.1,14.24.44,167.2Z"/><path class="cls-8" d="m772.93,669.59l-275.75.31c-.66,0-1.19-.54-1.18-1.2,0-.65.53-1.18,1.18-1.18l275.75-.31c.66,0,1.19.54,1.18,1.2,0,.65-.53,1.18-1.18,1.18Z"/><path class="cls-5" d="m430.66,312.26h-48.84c-1.44,0-2.6,1.17-2.6,2.61v77.15h54.05v-77.15c0-1.44-1.17-2.61-2.61-2.61h0Zm-24.25,43.84c-3.18-.01-5.75-2.59-5.77-5.77v-8.9c0-3.19,2.59-5.76,5.77-5.76,3.18,0,5.76,2.58,5.76,5.76v8.9c-.01,3.18-2.59,5.75-5.77,5.77h0Z"/><path class="cls-6" d="m511.53,191.86h-208.76c-3.73,0-6.76,3.03-6.77,6.77v140.88c0,3.74,3.03,6.76,6.77,6.77h208.76c3.74,0,6.76-3.03,6.77-6.77v-140.88c0-3.73-3.03-6.76-6.77-6.77Z"/><path class="cls-10" d="m509.79,196.75h-205.28c-2,0-3.62,1.63-3.62,3.63v137.38c0,2,1.62,3.62,3.62,3.62h205.28c2,0,3.62-1.62,3.62-3.62v-137.38c0-2-1.62-3.62-3.62-3.63Z"/><path class="cls-6" d="m379.05,389.55v7.44c0,.8.65,1.45,1.46,1.46h51.47c.8,0,1.45-.65,1.46-1.46v-7.44h-54.38Z"/><path class="cls-5" d="m469.81,401.04h-122.13c-1.24,0-2.25-1.01-2.25-2.25,0-.16.02-.31.05-.46l1.9-9c.22-1.04,1.14-1.78,2.2-1.78h118.34c1.06,0,1.98.75,2.2,1.78l1.9,9c.26,1.21-.52,2.41-1.74,2.66-.15.03-.31.05-.46.05Z"/><rect class="cls-6" x="350.44" y="389.17" width="3.76" height="2.26" rx=".49" ry=".49"/><rect class="cls-6" x="357.96" y="389.17" width="3.76" height="2.26" rx=".49" ry=".49"/><rect class="cls-6" x="365.49" y="389.17" width="3.76" height="2.26" rx=".49" ry=".49"/><rect class="cls-6" x="373.01" y="389.17" width="3.76" height="2.26" rx=".49" ry=".49"/><rect class="cls-6" x="380.53" y="389.17" width="3.76" height="2.26" rx=".49" ry=".49"/><rect class="cls-6" x="388.05" y="389.17" width="3.76" height="2.26" rx=".49" ry=".49"/><rect class="cls-6" x="395.58" y="389.17" width="3.76" height="2.26" rx=".49" ry=".49"/><rect class="cls-6" x="403.1" y="389.17" width="3.76" height="2.26" rx=".49" ry=".49"/><rect class="cls-6" x="410.62" y="389.17" width="3.76" height="2.26" rx=".49" ry=".49"/><rect class="cls-6" x="418.15" y="389.17" width="3.76" height="2.26" rx=".49" ry=".49"/><rect class="cls-6" x="425.67" y="389.17" width="3.76" height="2.26" rx=".49" ry=".49"/><rect class="cls-6" x="433.19" y="389.17" width="3.76" height="2.26" rx=".49" ry=".49"/><rect class="cls-6" x="440.71" y="389.17" width="3.76" height="2.26" rx=".49" ry=".49"/><rect class="cls-6" x="448.24" y="389.17" width="3.76" height="2.26" rx=".49" ry=".49"/><rect class="cls-6" x="455.76" y="389.17" width="3.76" height="2.26" rx=".49" ry=".49"/><rect class="cls-6" x="463.28" y="389.17" width="3.76" height="2.26" rx=".49" ry=".49"/><rect class="cls-6" x="350.35" y="392.93" width="3.76" height="2.26" rx=".49" ry=".49"/><rect class="cls-6" x="357.87" y="392.93" width="3.76" height="2.26" rx=".49" ry=".49"/><rect class="cls-6" x="365.4" y="392.93" width="3.76" height="2.26" rx=".49" ry=".49"/><rect class="cls-6" x="372.92" y="392.93" width="3.76" height="2.26" rx=".49" ry=".49"/><rect class="cls-6" x="380.44" y="392.93" width="3.76" height="2.26" rx=".49" ry=".49"/><rect class="cls-6" x="387.97" y="392.93" width="3.76" height="2.26" rx=".49" ry=".49"/><rect class="cls-6" x="395.49" y="392.93" width="3.76" height="2.26" rx=".49" ry=".49"/><rect class="cls-6" x="403.01" y="392.93" width="3.76" height="2.26" rx=".49" ry=".49"/><rect class="cls-6" x="410.53" y="392.93" width="3.76" height="2.26" rx=".49" ry=".49"/><rect class="cls-6" x="418.06" y="392.93" width="3.76" height="2.26" rx=".49" ry=".49"/><rect class="cls-6" x="425.58" y="392.93" width="3.76" height="2.26" rx=".49" ry=".49"/><rect class="cls-6" x="433.1" y="392.93" width="3.76" height="2.26" rx=".49" ry=".49"/><rect class="cls-6" x="440.63" y="392.93" width="3.76" height="2.26" rx=".49" ry=".49"/><rect class="cls-6" x="448.15" y="392.93" width="3.76" height="2.26" rx=".49" ry=".49"/><rect class="cls-6" x="455.67" y="392.93" width="3.76" height="2.26" rx=".49" ry=".49"/><rect class="cls-6" x="463.19" y="392.93" width="3.76" height="2.26" rx=".49" ry=".49"/><rect class="cls-6" x="386.46" y="397.44" width="30.09" height="2.26" rx=".49" ry=".49"/><path class="cls-8" d="m499.47,215.68h-192.08c-.42,0-.76-.36-.75-.78,0-.41.34-.74.75-.75h192.08c.42,0,.76.36.75.78,0,.41-.34.74-.75.75Z"/><ellipse class="cls-6" cx="320.47" cy="205.67" rx="4.48" ry="4.58"/><ellipse class="cls-6" cx="335.93" cy="205.67" rx="4.48" ry="4.58"/><ellipse class="cls-6" cx="351.4" cy="205.67" rx="4.48" ry="4.58"/><path class="cls-6" d="m490.16,202.23h-10.98c-.46,0-.82.39-.82.85,0,.45.37.81.82.82h10.98c.46,0,.82-.39.82-.85,0-.45-.37-.81-.82-.82Z"/><path class="cls-6" d="m490.16,205.35h-10.98c-.46,0-.82.39-.82.85,0,.45.37.81.82.82h10.98c.46,0,.82-.39.82-.85,0-.45-.37-.81-.82-.82Z"/><path class="cls-6" d="m490.16,208.47h-10.98c-.46,0-.82.39-.82.85,0,.45.37.81.82.82h10.98c.46,0,.82-.39.82-.85,0-.45-.37-.81-.82-.82Z"/><rect class="cls-7" x="391.51" y="260.3" width="30.53" height="6.53" rx="3.26" ry="3.26"/><rect class="cls-12" x="376.01" y="273.36" width="61.54" height="6.53" rx="3.26" ry="3.26"/><rect class="cls-12" x="376.01" y="286.41" width="61.54" height="6.53" rx="3.26" ry="3.26"/><path class="cls-6" d="m309.27,410.86h-60c-4.42,0-8,3.58-8,8s3.58,8,8,8h22v62h16v-62h22c4.42,0,8-3.58,8-8s-3.58-8-8-8Z"/><path class="cls-6" d="m348.87,523.2h-160.48c-32.16-.12-59.37-23.8-63.92-55.64l-5.68-20.9c-11.76-43.3-29.67-84.69-53.18-122.9-10.75-17.45-16.28-34.35-3.71-50.62.11-.14.21-.28.32-.41,10.08-13.12,60.23-15.96,76.59-16.51.65-.02,1.29-.03,1.95-.03h99.82c.65,0,1.3.01,1.94.03,17.96.52,34.18,10.86,42.24,26.92,8.6,16.39,7.5,36.19-2.86,51.53-35.06,52.67-45.8,85.7-34.81,107.08,10.63,20.69,43.22,31.26,102.56,33.29,15.95.54,23.26,12.96,23.32,24.27.05,11.01-6.99,23.18-22.55,23.85-.51.02-1.02.03-1.53.03Z"/><path class="cls-6" d="m215.65,665.7h60c4.42,0,8-3.58,8-8s-3.58-8-8-8h-22v-135h-16v135h-22c-4.42,0-8,3.58-8,8s3.58,8,8,8Z"/><path class="cls-5" d="m210.86,261.21l1.26,7.64c.6,3.71,2.75,29.89,1.15,33.01-.14-5.83-11-15-18.04-12.91l-11.04,2.45-6.85,1.52-5.58,1.22-16.21,3.54c-.03-.19-.05-.39-.08-.58-.04-.24-.08-.47-.12-.71-.3-1.52-.85-2.98-1.63-4.32-.08,1.8-.61,3.54-1.54,5.08-.03.04-.05.08-.07.13-.29.47-.61.91-.95,1.34-.02.01-.03.02-.04.04,0,0-3.33-53.09-2.98-53.58.26-.35.51-.69.78-1.02.27-.34.53-.67.81-1,.04-.03.07-.07.09-.11.78-.92,1.61-1.81,2.48-2.65.26-.25.52-.49.79-.74,4.06-3.75,8.9-6.55,14.18-8.18.6-.18,1.21-.35,1.84-.52.62-.16,1.25-.31,1.89-.44l.22-.04c.3-.06.62-.12.92-.17.38-.07.77-.13,1.15-.17,4.91-.71,9.91-.43,14.71.83,0,0,.01,0,.02,0,4.01,1.05,7.82,2.74,11.28,5.02,5.98,3.95,8.31,10.39,9.97,17.63.58,2.48,1.07,5.07,1.6,7.67Z"/><polygon class="cls-11" points="269.96 611.27 280.29 616.89 307.65 579.05 292.4 570.77 269.96 611.27"/><path class="cls-5" d="m274.93,597.79l18.76,5.88-2.99,7.86,12.87,18.67c1.65,2.39,1.04,5.66-1.34,7.31-1.42.98-3.23,1.2-4.85.59l-21.84-8.3-.81-9.21-4.42,7.22-8.24-3.13,12.86-26.89Z"/><path class="cls-11" d="m328.5,442.06c-6.23,1.52-12.51-2.3-14.03-8.54-.16-.66-.26-1.34-.31-2.02l-88.16-31.72,16.18-14.08,83.68,33.32c6.45.03,11.66,5.27,11.63,11.72-.02,5.4-3.74,10.08-8.99,11.32h0Z"/><path class="cls-2" d="m201.37,321.21s-14.85.33-16.17,17.28,31.08,58.88,36.1,65.8,60.78,15.43,60.78,15.43l18.95-13.76c-19.92-12.9-38.09-22.8-50.29-22.36l-49.37-62.39Z"/><path class="cls-11" d="m183.16,396.01l3.62,15.55s.04,14.33,2.57,16.98c2.52,2.63,57.96-2.65,57.96-2.65,0,0-5.88-23.1-5.8-40.58l-58.35,10.71Z"/><path class="cls-5" d="m300.27,594.86l-20-11c-.38-26.02,15.27-61.24,33.84-98.13-41.52,7.14-80.7,9.43-114.58.79-11.57-3.06-18.55-14.84-15.66-26.46.13-.55.28-1.09.46-1.63,4.06-12.37-5.04-20.13,3.33-33.74,22-7.51,42.89-9.63,62-3l11.97,26.47,59.34-7.68c12-1.43,22.89,7.13,24.32,19.13,0,.05.01.11.02.16.08.64.13,1.29.16,1.94-12,56.25-25.45,106.87-45.2,133.14Z"/><circle class="cls-11" cx="180.94" cy="264.28" r="24.81"/><path class="cls-1" d="m175.11,297.58l22.86-1.35c1.98-.12,3.81,1.03,4.56,2.86l6.46,15.66,26.85,22.19s10.63,13.53,10.66,31,3.77,57.91,3.77,57.91c0,0-15.52-21.84-25.09-16.03-1.63.99-2.2,3.01-3.91,4.03-.85.51-2.82.01-3.68.52-13.2,7.83-26.96,15.49-28.24,14.14-2.52-2.63-5.59-16.1-5.59-16.1l-20.93-76.89c-2.3-8.19-.81-16.98,4.05-23.96,1.46-2.06,2.99-3.59,4.42-3.84,3.2-.68,1.5-7.84,3.81-10.16Z"/><polygon class="cls-11" points="369.58 643.84 379.23 637.13 357.37 595.89 343.12 605.79 369.58 643.84"/><path class="cls-5" d="m371.04,616.17l-15.12,13.52c-24.05-26.8-42.23-64.38-57.63-107.05-40.37-11.82-70.81-30.89-97.38-53.53-9.02-7.63-15.77-17.43-8.08-26.72.36-.43.73-.85,1.13-1.26,9.08-9.33,32.1-7.55,45.58-16.1l30.12,32.2-1.89,8.63,56.58,19.16c11.39,3.99,17.39,16.46,13.4,27.85-.02.06-.04.11-.06.17-.21.61-.45,1.22-.71,1.81l34.09,101.32Z"/><path class="cls-5" d="m363.95,641.12l15.45-12.16,4.8,6.9,22.68-.07c2.9,0,5.26,2.34,5.27,5.24,0,1.73-.84,3.34-2.25,4.33l-19.19,13.34-8.05-4.53,3.46,7.73-7.23,5.03-14.92-25.8Z"/><path class="cls-11" d="m208.87,491.35c-5.9-2.51-8.66-9.32-6.15-15.23.27-.63.59-1.23.96-1.81l-51.75-78.1,21.39-1.63,47.2,76.71c5.16,3.87,6.2,11.19,2.33,16.35-3.24,4.32-9.02,5.85-13.97,3.71h0Z"/><path class="cls-15" d="m179.11,318.49s-12.1-8.61-23.29,4.2-10.25,65.79-10.36,74.33c-.03,2.68,3.83,8.45,9.15,15.12,2.39,2.99,5.07,6.17,7.83,9.32,1.6,1.83.22,5.63,1.82,7.4,1.59,1.77,6.16,1.5,7.68,3.14,7.19,7.78,13.04,13.69,13.04,13.69l23.42.29c.26-17.41-11.66-32.95-26.98-47.97l-2.32-79.52Z"/><path class="cls-5" d="m211.94,252.23c-.92.45-1.81.89-2.68,1.3-3.51,1.73-7.14,3.2-10.86,4.42-.62-1.68-1.56-3.23-2.78-4.55.31,1.82.15,3.69-.46,5.43-5.63,1.39-11.53,1.17-17.04-.66,3.6,6.66,6.26,20.71,6.06,33.23-.08,6.62-.98,12.82-2.94,17.27l-2.51-7.65c-.23-2.73-.7-5.44-1.4-8.09-1.69-7.44-3.26-2.47-5.58,1.22l-16.21,3.54c-.03-.19-.05-.39-.08-.58-.04-.24-.08-.47-.12-.71-.3-1.52-.85-2.98-1.63-4.32-.08,1.8-.61,3.54-1.54,5.08-.03.04-.05.08-.07.13-.29.47-.61.91-.95,1.34-.02.01-.03.02-.04.04-10.46,1.4-17.8-52.57-2.98-53.57.43-.03.51-.69.78-1.03.27-.34.53-.67.81-1,.04-.03.07-.07.09-.11.79-.92,1.61-1.8,2.48-2.65.26-.25.52-.49.79-.74,4.07-3.73,8.91-6.52,14.18-8.17.6-.18,1.21-.36,1.84-.53.62-.16,1.25-.31,1.89-.44l.22-.04c.3-.06.62-.12.92-.17.38-.07.77-.13,1.15-.17,1.42.72,2.64,1.78,3.53,3.09l10.36-2.12c.27-.06.55-.1.83-.14h.02c12.93-2.17,21.24,8.22,23.93,21.34Z"/><path class="cls-5" d="m155.5,242.69c-2.22,1.6-4.55,3.25-7.26,3.65s-5.87-.91-6.62-3.54c-.92-3.22,1.99-6.14,4.6-8.23l8.28-6.63c1.52-1.34,3.23-2.45,5.07-3.28,1.88-.83,4.03-.76,5.85.2,1.81,1.22,2.85,3.29,2.76,5.47-.12,2.15-.83,4.22-2.05,6-3.1,4.84-8.05,8.2-13.69,9.31"/><path class="cls-6" d="m218.27,414.86h-60c-4.42,0-8,3.58-8,8s3.58,8,8,8h22v62h16v-62h22c4.42,0,8-3.58,8-8s-3.58-8-8-8Z"/><path class="cls-8" d="m439.93,668.59l-438.75.31c-.66,0-1.19-.54-1.18-1.2,0-.65.53-1.18,1.18-1.18l438.75-.31c.66,0,1.19.54,1.18,1.2,0,.65-.53,1.18-1.18,1.18Z"/><polygon class="cls-9" points="567.61 535.78 577.38 546.42 623.09 513.81 608.67 498.1 567.61 535.78"/><path class="cls-5" d="m587.83,550.84h0s-.99-10.64-.99-10.64l-.45-.21-2.63-1.25-12.41-5.87-.26-.28-2.49-2.72-13.79,12.66,18.68,20.36,12.81,13.96.43-.4c7.38-6.76,7.88-18.21,1.12-25.59,0,0-.01-.01-.02-.02h0Z"/><polygon class="cls-9" points="517.01 641.96 530.83 646.16 553.61 594.84 533.21 588.64 517.01 641.96"/><path class="cls-5" d="m552.8,653.45c-2.25-4.25-6.11-7.42-10.72-8.8l-6.27-8.65-.49.04-16.57,1.52-.37-.11-3.52-1.07-5.44,17.91,44.57,13.54.17-.57c1.4-4.6.92-9.57-1.36-13.81Z"/><path id="b2eb929e-713e-4b71-a146-193a455bcc79-341" class="cls-5" d="m630.99,373.27s88.25,85.21,32.46,111.58h-17.24s-5.18-18.41-17.05-33.94c-1.63-2.13-7.73-1.7-9.43-3.78-10.35-12.69-21.57-23.58-29.32-23.15l1.85,58.87,3,21c1.58,10.86-42.88,105.64-42.88,105.64l-27.94-10.98s29.11-78.07,29.45-89.33l-23.33-123.75,100.42-12.17Z"/><path class="cls-3" d="m638.35,377.47c-.45.64-1.04,1.17-1.72,1.56-1.12.64-2.34,1.09-3.61,1.34-19.87,4.51-84.78,13.86-101.63,9.4-2.07-.54-3.42-1.3-3.86-2.3-1.41-3.16-1.23-16.51-.4-32.63.15-3.02,3.48-6.29,3.68-9.45.14-2.37-2.85-4.6-2.69-7.01,1.1-16.3,2.52-32.91,3.47-43.41.6-6.75,1.01-10.97,1.01-10.97l-10.25-64.63.48-.79.54-.27,33.05-16.36,1.8-4.6c1.07-2.71,3.68-4.5,6.59-4.51l21.77-.09c2.29-.01,4.45,1.08,5.79,2.94l5.9,8.17,39,25-.15.46-18.3,55.69-.09,4.34h0s-.68,34.91-.68,34.91l1.89,4.73-2.13,7.76s.98,9.07,6.23,15.81c4.76,6.12,10.82,12.5,13.56,17.68h0c1.52,2.87,2.03,5.35.75,7.23Z"/><path id="e9cec503-1de8-4692-84d1-4d2e854ea0bd-342" class="cls-5" d="m667.69,479.79l-4.72,5.96s-43.38,30.35-44.87,33.19l-6.86,6.49-16.59-17.73,8.63-10.81c6.9-8.65,15.82-15.48,25.98-19.89h0l13.22-11.73,25.21,14.53Z"/><path class="cls-9" d="m640.12,394.6l-7.9-76.47-2.09-31.47,22.11-4s-.88,22.5,2.02,35.2c2.86,12.53.38,75.06.2,76.73,4.43,3.96,4.81,10.76.85,15.19s-10.76,4.81-15.19.85-4.81-10.76-.85-15.19c.26-.3.55-.58.84-.84h0Z"/><path class="cls-14" d="m661.69,333.98l-28.42,5.88-2.49-9.91-2.9-3.07-5.79-30.32-8.31-17.76,2.16-60.74,21.09,11.19.03.02c3.23,3.5,5.45,8.51,9.15,13.54,11.65,15.85,12.94,54.36,12.59,75.45,0,.35.34.71.76,1.1,4.09,3.75,4.98,9.86,2.12,14.63h0Z"/><path class="cls-9" d="m511.42,397.6l7.9-76.47,2.09-31.47-22.11-4s.88,22.5-2.02,35.2c-2.86,12.53-.38,75.06-.2,76.73-4.43,3.96-4.81,10.76-.85,15.19s10.76,4.81,15.19.85c4.43-3.96,4.81-10.76.85-15.19-.26-.3-.55-.58-.84-.84h0Z"/><path class="cls-13" d="m537.75,281.79l-6.16,13.18-2.15,4.59-5.79,30.32-2.89,3.07-2.49,9.91-1.17-.24-21.1-4.37-6.15-1.27c-2.86-4.76-1.97-10.88,2.12-14.63.42-.38.77-.75.76-1.1-.35-21.09.94-59.6,12.59-75.45,3.7-5.03,5.92-10.04,9.15-13.54.01,0,.01-.02.02-.02l7.86-12.87.48-.79.54-.27,14.38,63.48Z"/><circle id="e944ea38-edcc-43c9-bf24-dbaf21228ba4" class="cls-9" cx="575.07" cy="157.59" r="28.97"/><path class="cls-5" d="m607.63,144.88c-.1-4.94-.66-11.26-4.12-16.3-2.92-4.24-8.81-7.6-14.3-5.92.13-2.24-1.02-4.36-2.96-5.48-2.08-1.27-4.58-1.5-6.79-1.71-5.57-.52-11.34-1.06-16.98,0-6.33,1.2-11.51,4.46-14.2,8.95l-.06.14-.55,2.66c-.15.72-.61,1.34-1.25,1.7-.65.36-1.42.42-2.11.15-1.18-.44-2.5.16-2.95,1.34-.14.36-.18.76-.12,1.14l.15,1.06-1.59-.3c-1.24-.24-2.44.57-2.68,1.81-.08.42-.04.85.11,1.24l.44,1.21c-.66,0-1.3.29-1.75.77-.66.72-.78,1.77-.3,2.62,1.78,3.04,4.31,5.58,7.34,7.38,1.36.82,2.83,1.45,4.37,1.87.32.09.65.17.99.24,12.28,2.65,24.94,3.03,37.35,1.12-.73,2.45-1.01,5.01-.83,7.56.4,3.19,2.27,5.82,4.77,6.7.57.19,1.15.33,1.74.42.57.09,1.13.23,1.67.41,2.52.92,3.82,3.72,2.89,6.24-.3.81-.81,1.53-1.47,2.08,0,0,2.62,2.17,2.95,2.06,1.29-.57,2.37-1.53,3.08-2.74,4.99-7.18,7.4-16.74,7.16-28.43Z"/></svg>