<?xml version="1.0" encoding="utf-8"?>
<!-- Generator: Adobe Illustrator 27.9.0, SVG Export Plug-In . SVG Version: 6.00 Build 0)  -->
<svg version="1.1" id="Lager_1" xmlns="http://www.w3.org/2000/svg" xmlns:xlink="http://www.w3.org/1999/xlink" x="0px" y="0px"
	 viewBox="0 0 598.3 581.5" style="enable-background:new 0 0 598.3 581.5;" xml:space="preserve">
<style type="text/css">
	.st0{fill:#FFB6B6;}
	.st1{fill:#E6E6E6;}
	.st2{fill:#3F3D56;}
	.st3{fill:url(#SVGID_1_);}
	.st4{fill:url(#SVGID_00000170240973077280423440000005105671927218737041_);}
	.st5{fill:url(#SVGID_00000160902174179211476080000003967440147490164102_);}
	.st6{fill:#2F2E41;}
	.st7{fill:url(#SVGID_00000174596843726482261960000016995092625212161201_);}
	.st8{fill:url(#SVGID_00000081646167849893379480000003675226121728817081_);}
	.st9{fill:url(#SVGID_00000001655586301624540080000010279342291573583514_);}
	.st10{fill:url(#SVGID_00000116919287296510472950000003514010418899862684_);}
	.st11{fill:url(#SVGID_00000055695849067609925510000009105365036658062772_);}
	.st12{fill:url(#SVGID_00000040573374457735783960000009501902000170942124_);}
</style>
<path id="uuid-207e1ec5-f316-41d7-bdda-8b0dd0a2bd60-1895" class="st0" d="M317.4,441.4c-8.9,1.4-15.4,7.1-14.5,12.7
	c0.9,5.7,8.8,9.1,17.7,7.8c3.6-0.5,7-1.8,9.9-3.9l37.6-6.3l-2.5-14.9l-37.5,5.3C324.6,441,320.9,440.8,317.4,441.4z"/>
<polygon class="st1" points="479.5,395 464.9,426 391.6,450.6 330.7,453.9 329.2,439.3 395.1,425.5 462.8,393.5 "/>
<g>
	
		<rect x="313" y="330.2" transform="matrix(0.9998 -2.200089e-02 2.200089e-02 0.9998 -9.1013 7.0097)" class="st2" width="2" height="173.8"/>
	<path class="st2" d="M313.2,407.2c-0.2-0.6-4.3-15.3,4.7-29.7l1.7,1.1c-8.5,13.6-4.5,27.9-4.4,28.1L313.2,407.2z"/>
	<linearGradient id="SVGID_1_" gradientUnits="userSpaceOnUse" x1="322.2486" y1="361.4094" x2="356.7786" y2="371.7912">
		<stop  offset="0" style="stop-color:#3E8925"/>
		<stop  offset="0.1595" style="stop-color:#3576E1"/>
		<stop  offset="0.6456" style="stop-color:#CB30A7"/>
	</linearGradient>
	<path class="st3" d="M318.5,378.6c0,0-2.7-18.7,22.4-23.8c5.2-1.1,10.2-1.8,14.7-2.3c5.3-0.6,7.4,6.7,2.6,9.1
		c-7,3.4-13.5,7.7-16.9,12.8C331.8,388.5,318.5,378.6,318.5,378.6z"/>
	<path class="st2" d="M315.7,461.1l-1.9-0.6c0-0.1,4.1-14.4-4.4-28.1l1.7-1.1C320.1,445.8,315.9,460.5,315.7,461.1z"/>
	
		<linearGradient id="SVGID_00000048484063549130928200000011240239202961244813_" gradientUnits="userSpaceOnUse" x1="266.866" y1="414.3633" x2="311.796" y2="427.8719">
		<stop  offset="0.3544" style="stop-color:#CB30A7"/>
		<stop  offset="0.8405" style="stop-color:#3576E1"/>
		<stop  offset="1" style="stop-color:#3E8925"/>
	</linearGradient>
	<path style="fill:url(#SVGID_00000048484063549130928200000011240239202961244813_);" d="M310.4,432.6c0,0,2.7-18.7-22.4-23.8
		c-5.2-1.1-10.2-1.8-14.7-2.3c-5.3-0.6-7.4,6.7-2.6,9.1c7,3.4,13.5,7.7,16.9,12.8C297.1,442.4,310.4,432.6,310.4,432.6z"/>
	
		<linearGradient id="SVGID_00000047743456219282501750000006661238079486526618_" gradientUnits="userSpaceOnUse" x1="275.5614" y1="293.8434" x2="353.5132" y2="317.2803">
		<stop  offset="0.3544" style="stop-color:#CB30A7"/>
		<stop  offset="0.8405" style="stop-color:#3576E1"/>
		<stop  offset="1" style="stop-color:#3E8925"/>
	</linearGradient>
	<path style="fill:url(#SVGID_00000047743456219282501750000006661238079486526618_);" d="M345.4,306.1c5.1-1.3,9.8-3.7,9.6-6
		c-0.2-2.7-7.2-4.6-13.3-4.8c4.6-3.6,8.8-8.5,7.5-10.8c-1.2-2.1-6.7-1.3-11.7,0.6c3-4.3,5.1-9.1,3.5-10.8c-2-2.1-9.1,1.5-13.9,5.4
		c0.9-6.1,0.5-13.9-2.3-14.6c-2.3-0.6-5.6,3.9-7.8,8.8c-1-5.1-3-10-5.3-10c-3.3,0-5.9,9.9-5.9,16.4c0,0.4,0,0.7,0,1
		c-0.3-0.4-0.7-0.8-1.1-1.2c-4.6-4.5-13.6-9.5-15.9-7.1c-1.6,1.7,0.5,6.5,3.5,10.8c-5.1-1.8-10.6-2.6-11.7-0.6
		c-1.6,2.8,5.2,9.7,10.7,13c-0.3,0-0.7-0.1-1.1-0.1c-6.4-0.4-16.5,1.5-16.7,4.8c-0.2,2.3,4.6,4.6,9.6,6c-5,1.9-9.7,4.8-9.3,7.2
		c0.5,2.8,8.4,3.8,14.6,3.2c-4.6,4.5-9.7,12.4-7.6,14.8c1.5,1.7,6.5-0.1,11-2.8c-2.2,4.9-3.3,10.4-1.3,11.7
		c2.6,1.7,9.7-4.3,13.5-9.5c-0.4,6.4,1.1,15.2,4.2,15.5c2.3,0.3,4.8-4.4,6.4-9.4c1.7,5.1,4.4,10,6.7,9.6c3.1-0.4,4.4-9.4,3.8-15.8
		c3.9,5,10.4,10.4,12.9,8.7c2-1.3,0.8-6.7-1.3-11.7c4.5,2.7,9.4,4.5,11,2.8c2.1-2.3-2.9-10.3-7.6-14.8c6.2,0.6,14.1-0.4,14.6-3.2
		C355.1,311,350.4,308,345.4,306.1z M318.1,324.2c-1.3,0.2-2.5,0.4-3.4,1.1c-1-1-2.4-1.2-3.9-1.4c-1.7-0.2-3.3-0.2-4.5,0.8
		c-0.4-1.2-1.5-2.1-2.8-3c-1.1-0.7-2.1-1.3-3.3-1.4c-0.1-1.4-0.9-2.5-2-3.7c-0.7-0.7-1.3-1.4-2.1-1.9c1.1-1.3,0.9-3,0.6-4.8
		c-0.2-1.3-0.5-2.5-1.2-3.3c0.9-1,1.1-2.4,1.2-4c0.1-1.7,0.1-3.3-0.9-4.4c2.6,0.3,3.8-1.3,4.9-3.3c0.7-1.1,1.2-2.2,1.2-3.3
		c1.3-0.2,2.4-1.1,3.5-2.2c0.9-1,1.7-1.9,2-3c1.1,0.9,2.5,1,4.1,1c1.6,0,3-0.1,4.1-1c0.8,0.7,2,1.1,3.3,1.5c1.2,0.3,2.4,0.5,3.4,0.3
		c0.4,0.9,1.1,1.7,1.8,2.5c1.1,1.1,2.2,2.1,3.5,2.2c0,1.1,0.6,2.2,1.2,3.3c0.8,1.3,1.6,2.5,2.8,3c-0.1,0.8-0.1,1.6-0.1,2.5
		c0.1,1.6,0.3,3,1.2,4c-0.7,0.9-1,2.1-1.2,3.3c-0.3,1.8-0.5,3.5,0.6,4.8c-0.7,0.4-1.4,1.1-2.1,1.9c-1,1.2-1.9,2.3-2,3.7
		c-1.1,0.1-2.2,0.7-3.3,1.4c-1.5,1-2.7,2-3,3.6C320.9,323.9,319.6,324,318.1,324.2L318.1,324.2z"/>
	<circle class="st2" cx="314.7" cy="306.1" r="21.2"/>
</g>
<path class="st2" d="M58.5,563.6c0,0.7,0.5,1.2,1.2,1.2H582c0.7,0,1.2-0.5,1.2-1.2c0-0.7-0.5-1.2-1.2-1.2H59.7
	C59,562.4,58.5,562.9,58.5,563.6z"/>
<polygon class="st0" points="344.2,512.5 331.1,545.7 314.2,534.1 324.2,499.4 "/>
<polygon class="st0" points="289.5,500.2 254.9,533.3 268.7,548 304.2,520.3 "/>
<polygon class="st0" points="486,392.4 485.6,389.7 476.8,372.3 447.5,380 452.9,403.9 "/>
<path class="st6" d="M473.7,507.9l0.9,11.6c0,0,3.7,48.5-26.3,52.4c-30,3.9-43.1,7.7-60.9-22.3l-27.7-49.3l-16.2,19.3l-21.6-17
	c0,0,15.4-60.1,27.7-62.4c1.5-0.3,3.1-0.4,4.6-0.5c10.2-0.2,19.8,4.8,25.9,13l35,46.8l12.7-5.8L473.7,507.9L473.7,507.9z"/>
<path class="st6" d="M307.3,544.1l6.9-13.1l20,13.9c0,0,4.6,16.9-2.3,19.3s-26.2-0.8-26.2-0.8s-35.4,7.7-36.2,0.8s16.2-8.5,16.2-8.5
	L307.3,544.1z"/>
<path class="st6" d="M382.8,534.9l-53.5-33.7l-27.4,24.5l-18.5-21.6c0,0,33.9-50.1,43.9-52.4s26.2-3.9,26.2-3.9l49.3,45.5
	L382.8,534.9L382.8,534.9z"/>
<path class="st6" d="M254.1,530.3l17.7,19.3l-2.3,2c0,0-4.6,20-15.4,13.2c-10.8-6.8-11.6-8.3-11.6-8.3s-30.8,6.9-33.9-5.4
	s5.4-10,5.4-10l7.7,4.6L254.1,530.3L254.1,530.3z"/>
<circle class="st0" cx="456.7" cy="363.9" r="24.7"/>
<path class="st1" d="M450.9,398.9l35.4-10.8c0,0,13.9,32.4,11.6,47c-2.3,14.6-23.4,84.4-23.4,84.4l-46.7-25.8c0,0-0.8-15.4-3.1-22.3
	s-9.6-28.1,6.5-45.8C447.5,407.8,450.9,398.9,450.9,398.9L450.9,398.9z"/>
<g>
	
		<rect x="107.3" y="156" transform="matrix(0.9998 -2.199950e-02 2.199950e-02 0.9998 -7.9046 2.4708)" class="st2" width="2" height="409.1"/>
	<path class="st2" d="M107.6,336.7c-0.1-0.3-10-35.4,10.8-68.8l1.7,1.1c-20.3,32.6-10.7,66.8-10.6,67.1L107.6,336.7z"/>
	
		<linearGradient id="SVGID_00000182529692121520266070000000883103707647998892_" gradientUnits="userSpaceOnUse" x1="127.7103" y1="229.3179" x2="208.9997" y2="253.7583">
		<stop  offset="0" style="stop-color:#3E8925"/>
		<stop  offset="0.2293" style="stop-color:#3576E1"/>
		<stop  offset="0.6456" style="stop-color:#CB30A7"/>
	</linearGradient>
	<path style="fill:url(#SVGID_00000182529692121520266070000000883103707647998892_);" d="M118.9,269.8c0,0-6.4-43.9,52.8-56
		c12.3-2.5,23.9-4.2,34.6-5.4c12.5-1.3,17.4,15.8,6.1,21.4c-16.4,8-31.8,18.2-39.9,30.1C150.2,293,118.9,269.8,118.9,269.8z"/>
	<path class="st2" d="M111.1,463.7l-1.9-0.6c0.1-0.3,9.8-34.5-10.6-67.1l1.7-1.1C121.1,428.3,111.2,463.3,111.1,463.7z"/>
	
		<linearGradient id="SVGID_00000006694998600682283160000012886043734057213576_" gradientUnits="userSpaceOnUse" x1="4.2132" y1="356.0495" x2="99.9709" y2="384.84">
		<stop  offset="0.3544" style="stop-color:#CB30A7"/>
		<stop  offset="0.7707" style="stop-color:#3576E1"/>
		<stop  offset="1" style="stop-color:#3E8925"/>
	</linearGradient>
	<path style="fill:url(#SVGID_00000006694998600682283160000012886043734057213576_);" d="M99.8,396.8c0,0,6.4-43.9-52.8-56
		c-12.3-2.5-23.9-4.2-34.6-5.4c-12.5-1.3-17.4,15.8-6.1,21.4c16.4,8,31.8,18.2,39.9,30.1C68.5,420,99.8,396.8,99.8,396.8L99.8,396.8
		z"/>
	
		<linearGradient id="SVGID_00000068667521271705824470000015551022766443132607_" gradientUnits="userSpaceOnUse" x1="17.8007" y1="70.2562" x2="201.3124" y2="125.4308">
		<stop  offset="0.3544" style="stop-color:#CB30A7"/>
		<stop  offset="0.7707" style="stop-color:#3576E1"/>
		<stop  offset="1" style="stop-color:#3E8925"/>
	</linearGradient>
	<path style="fill:url(#SVGID_00000068667521271705824470000015551022766443132607_);" d="M182.2,99.2c11.9-3.1,23.1-8.6,22.7-14
		c-0.4-6.4-17-10.7-31.3-11.4c10.8-8.4,20.7-20.1,17.6-25.3c-2.8-4.8-15.7-3-27.6,1.3c7.1-10.1,12-21.5,8.2-25.4
		c-4.7-4.9-21.4,3.5-32.8,12.8c2.2-14.4,1.1-32.6-5.4-34.3c-5.4-1.4-13.1,9.2-18.3,20.7C113,11.5,108.3,0,102.8,0
		c-7.7,0-14,23.3-14,38.5c0,0.9,0,1.7,0.1,2.4c-0.8-0.9-1.7-1.8-2.7-2.8c-10.9-10.6-32-22.3-37.4-16.8c-3.8,3.9,1.2,15.3,8.2,25.4
		c-11.9-4.3-24.9-6.1-27.6-1.3C25.7,51.9,41.7,68.1,54.7,76c-0.8-0.1-1.6-0.2-2.5-0.2c-15.2-1-38.8,3.6-39.4,11.3
		c-0.4,5.4,10.8,10.9,22.7,14c-11.9,4.5-22.9,11.4-21.9,16.9c1.2,6.7,19.8,9,34.5,7.6c-10.9,10.5-22.8,29.3-17.8,34.8
		c3.6,4,15.3-0.1,25.9-6.5c-5.1,11.6-7.8,24.4-3.2,27.5c6.1,4.1,22.9-10.2,31.8-22.5c-0.9,15,2.7,35.7,9.8,36.5
		c5.4,0.6,11.4-10.3,15-22c3.9,12.1,10.3,23.4,15.9,22.7c7.2-1,10.3-22.1,9-37.2c9.1,11.8,24.5,24.4,30.3,20.5
		c4.6-3.1,1.9-15.9-3.2-27.5c10.6,6.4,22.2,10.5,25.9,6.5c4.9-5.5-6.9-24.3-17.8-34.8c14.6,1.4,33.3-1,34.5-7.6
		C205.1,110.5,194,103.6,182.2,99.2L182.2,99.2z M118,141.7c-3.1,0.4-5.9,1-8,2.5c-2.3-2.2-5.6-2.9-9.2-3.3
		c-4.1-0.5-7.9-0.5-10.7,1.9c-1-2.9-3.6-5-6.6-7c-2.6-1.7-5.1-3.1-7.7-3.4c-0.2-3.2-2.2-5.9-4.7-8.6c-1.6-1.8-3.2-3.3-4.9-4.4
		c2.5-3.1,2.2-7,1.5-11.2c-0.6-3-1.3-5.8-2.9-7.9c2.1-2.4,2.7-5.7,2.9-9.4c0.3-4,0.2-7.7-2.2-10.4c6,0.8,8.9-3,11.6-7.7
		c1.5-2.7,2.8-5.3,2.9-7.9c3.2-0.4,5.7-2.6,8.3-5.3c2.2-2.3,4.1-4.5,4.8-7.1c2.5,2.1,6,2.4,9.8,2.4c3.7,0,7.1-0.3,9.6-2.3
		c1.9,1.8,4.7,2.7,7.7,3.4c2.9,0.7,5.6,1.2,8,0.7c0.9,2,2.5,3.9,4.3,5.8c2.6,2.7,5.1,4.9,8.3,5.3c0.1,2.6,1.3,5.2,2.9,7.9
		c1.8,3.2,3.7,5.9,6.6,7.1c-0.3,1.8-0.3,3.8-0.2,6c0.3,3.7,0.8,7,2.9,9.4c-1.6,2.1-2.3,4.8-2.9,7.9c-0.8,4.3-1.1,8.1,1.5,11.2
		c-1.7,1-3.3,2.6-4.9,4.4c-2.5,2.8-4.5,5.5-4.7,8.6c-2.6,0.3-5.1,1.7-7.7,3.4c-3.5,2.3-6.4,4.8-7,8.6
		C124.6,141,121.4,141.2,118,141.7z"/>
	<circle class="st2" cx="109.8" cy="99" r="50"/>
</g>
<g>
	
		<rect x="570.9" y="466.3" transform="matrix(0.9998 -2.200403e-02 2.200403e-02 0.9998 -11.1966 12.7086)" class="st2" width="2" height="97.7"/>
	<path class="st2" d="M571,509.7c-0.1-0.4-2.5-8.8,2.7-17l1.7,1.1c-4.7,7.5-2.5,15.3-2.4,15.4L571,509.7z"/>
	
		<linearGradient id="SVGID_00000070111902052761920400000012120741477739481022_" gradientUnits="userSpaceOnUse" x1="576.5148" y1="483.7928" x2="595.938" y2="489.6325">
		<stop  offset="0" style="stop-color:#3E8925"/>
		<stop  offset="0.1595" style="stop-color:#3576E1"/>
		<stop  offset="0.6456" style="stop-color:#CB30A7"/>
	</linearGradient>
	<path style="fill:url(#SVGID_00000070111902052761920400000012120741477739481022_);" d="M574.4,493.5c0,0-1.5-10.5,12.6-13.4
		c2.9-0.6,5.7-1,8.3-1.3c3-0.3,4.2,3.8,1.5,5.1c-3.9,1.9-7.6,4.3-9.5,7.2C581.9,499,574.4,493.5,574.4,493.5z"/>
	<path class="st2" d="M573.3,540l-1.9-0.6c0-0.1,2.2-7.9-2.4-15.4l1.7-1.1C575.8,531.2,573.4,539.6,573.3,540z"/>
	
		<linearGradient id="SVGID_00000102534750172721628450000008135069912998281349_" gradientUnits="userSpaceOnUse" x1="545.3621" y1="513.5793" x2="570.6353" y2="521.178">
		<stop  offset="0.3544" style="stop-color:#CB30A7"/>
		<stop  offset="0.8405" style="stop-color:#3576E1"/>
		<stop  offset="1" style="stop-color:#3E8925"/>
	</linearGradient>
	<path style="fill:url(#SVGID_00000102534750172721628450000008135069912998281349_);" d="M569.8,523.8c0,0,1.5-10.5-12.6-13.4
		c-2.9-0.6-5.7-1-8.3-1.3c-3-0.3-4.2,3.8-1.5,5.1c3.9,1.9,7.6,4.3,9.5,7.2C562.4,529.4,569.8,523.8,569.8,523.8z"/>
	
		<linearGradient id="SVGID_00000178164805587626652300000009597661415464952249_" gradientUnits="userSpaceOnUse" x1="550.2531" y1="445.7869" x2="594.1011" y2="458.9702">
		<stop  offset="0.3544" style="stop-color:#CB30A7"/>
		<stop  offset="0.8405" style="stop-color:#3576E1"/>
		<stop  offset="1" style="stop-color:#3E8925"/>
	</linearGradient>
	<path style="fill:url(#SVGID_00000178164805587626652300000009597661415464952249_);" d="M589.5,452.7c2.8-0.8,5.5-2.1,5.4-3.4
		c-0.1-1.5-4.1-2.6-7.5-2.7c2.6-2,4.9-4.8,4.2-6.1c-0.7-1.2-3.8-0.7-6.6,0.3c1.7-2.4,2.9-5.1,2-6.1c-1.1-1.2-5.1,0.8-7.8,3.1
		c0.5-3.4,0.3-7.8-1.3-8.2c-1.3-0.3-3.1,2.2-4.4,5c-0.6-2.9-1.7-5.6-3-5.6c-1.8,0-3.3,5.6-3.3,9.2c0,0.2,0,0.4,0,0.6
		c-0.2-0.2-0.4-0.4-0.6-0.7c-2.6-2.5-7.6-5.3-8.9-4c-0.9,0.9,0.3,3.6,2,6.1c-2.9-1-5.9-1.5-6.6-0.3c-0.9,1.6,2.9,5.4,6,7.3
		c-0.2,0-0.4,0-0.6-0.1c-3.6-0.2-9.3,0.9-9.4,2.7c-0.1,1.3,2.6,2.6,5.4,3.4c-2.8,1.1-5.5,2.7-5.2,4c0.3,1.6,4.7,2.1,8.2,1.8
		c-2.6,2.5-5.4,7-4.3,8.3c0.9,1,3.7,0,6.2-1.6c-1.2,2.8-1.9,5.8-0.8,6.6c1.5,1,5.5-2.4,7.6-5.4c-0.2,3.6,0.6,8.5,2.3,8.7
		c1.3,0.1,2.7-2.5,3.6-5.3c0.9,2.9,2.5,5.6,3.8,5.4c1.7-0.2,2.5-5.3,2.1-8.9c2.2,2.8,5.9,5.8,7.2,4.9c1.1-0.7,0.5-3.8-0.8-6.6
		c2.5,1.5,5.3,2.5,6.2,1.6c1.2-1.3-1.7-5.8-4.3-8.3c3.5,0.3,7.9-0.2,8.2-1.8C595,455.4,592.4,453.8,589.5,452.7L589.5,452.7z
		 M574.2,462.8c-0.7,0.1-1.4,0.2-1.9,0.6c-0.5-0.5-1.3-0.7-2.2-0.8c-1-0.1-1.9-0.1-2.6,0.4c-0.2-0.7-0.9-1.2-1.6-1.7
		c-0.6-0.4-1.2-0.7-1.8-0.8c0-0.8-0.5-1.4-1.1-2.1c-0.4-0.4-0.8-0.8-1.2-1c0.6-0.7,0.5-1.7,0.3-2.7c-0.1-0.7-0.3-1.4-0.7-1.9
		c0.5-0.6,0.6-1.4,0.7-2.2c0.1-1,0-1.8-0.5-2.5c1.4,0.2,2.1-0.7,2.8-1.8c0.4-0.6,0.7-1.3,0.7-1.9c0.8-0.1,1.4-0.6,2-1.3
		c0.5-0.5,1-1.1,1.1-1.7c0.6,0.5,1.4,0.6,2.3,0.6c0.9,0,1.7-0.1,2.3-0.5c0.5,0.4,1.1,0.6,1.8,0.8c0.7,0.2,1.3,0.3,1.9,0.2
		c0.2,0.5,0.6,0.9,1,1.4c0.6,0.6,1.2,1.2,2,1.3c0,0.6,0.3,1.2,0.7,1.9c0.4,0.8,0.9,1.4,1.6,1.7c-0.1,0.4-0.1,0.9,0,1.4
		c0.1,0.9,0.2,1.7,0.7,2.2c-0.4,0.5-0.6,1.2-0.7,1.9c-0.2,1-0.3,1.9,0.3,2.7c-0.4,0.3-0.8,0.6-1.2,1c-0.6,0.7-1.1,1.3-1.1,2.1
		c-0.6,0.1-1.2,0.4-1.8,0.8c-0.8,0.6-1.5,1.1-1.7,2C575.8,462.7,575,462.7,574.2,462.8z"/>
	<circle class="st2" cx="572.2" cy="452.7" r="11.9"/>
</g>
<g>
	<path id="uuid-fcc96ddd-8a9b-4008-9e3e-ba4d42e134c9-1896" class="st0" d="M372.9,560.7c-5.8,6.9-6.9,15.5-2.5,19.2
		c4.4,3.7,12.6,1,18.4-5.9c2.3-2.7,4-6,4.8-9.5l24.1-29.6l-11.7-9.5l-24.6,28.8C378.1,555.7,375.2,557.9,372.9,560.7L372.9,560.7z"
		/>
	<polygon class="st1" points="478.1,414.5 486.5,447.6 445.5,513.3 403.7,555.3 390.1,544.1 432.3,491.5 464.3,423.9 	"/>
</g>
<path class="st6" d="M434,359.6c6.3,0,6.7,0,7.7,0c7.8-0.2,9.9-3.3,13.9-3.1c7.1,0.4-2.3,35.9-6.2,52.4c-3.8,16.1,9.1,30.6,10,31.6
	c13.1,14.2,36.1,16.9,40.1,10.8c3.2-4.9-8.1-12.4-5.4-23.1c2.7-10.5,15-9.4,18.5-19.3c3.6-10.4-8.5-15.6-16.2-40.8
	c-4.4-14.5-3.6-17.2-7.7-26.2c-10.9-24-64.6-13.8-58.6,8.5C431.3,354.7,428.2,359.6,434,359.6L434,359.6z"/>
</svg>
