<?xml version="1.0" encoding="utf-8"?>
<!-- Generator: Adobe Illustrator 27.9.0, SVG Export Plug-In . SVG Version: 6.00 Build 0)  -->
<svg version="1.1" id="Lager_1" xmlns="http://www.w3.org/2000/svg" xmlns:xlink="http://www.w3.org/1999/xlink" x="0px" y="0px"
	 viewBox="0 0 731.7 688.6" style="enable-background:new 0 0 731.7 688.6;" xml:space="preserve">
<style type="text/css">
	.st0{fill:#E6E6E6;}
	.st1{fill:#3F3D56;}
	.st2{fill:url(#SVGID_1_);}
	.st3{fill:url(#SVGID_00000004544460233611560090000011187576915430790061_);}
	.st4{fill:url(#SVGID_00000125583589956669496720000001370200776541371812_);}
	.st5{fill:url(#SVGID_00000073682691780965636170000000110330640181115302_);}
	.st6{fill:url(#SVGID_00000013892784073937097750000015184494111958344127_);}
	.st7{fill:url(#SVGID_00000029010379931405027410000017838872488835329458_);}
	.st8{fill:url(#SVGID_00000169541429050920711400000017119844729403186078_);}
	.st9{fill:url(#SVGID_00000133488127437340562270000007962444712769480576_);}
	.st10{fill:url(#SVGID_00000166677348799531298430000006188625736181814662_);}
	.st11{fill:url(#SVGID_00000054944385333694119280000012960468592225383827_);}
	.st12{fill:#FFB6B6;}
	.st13{fill:url(#SVGID_00000006673878750591434210000017160144582964624000_);}
	.st14{fill:url(#SVGID_00000008871500505095675100000011886016801265388702_);}
</style>
<g>
	<path class="st0" d="M549.2,654.6c-1.3-10.4-6.2-20-10.3-29.7c-33.4-78.9-11.5-169-15.9-254.6c-3.9-75-28.3-147.2-52.6-218.2
		c-8.5-24.8-17.3-50.3-31.7-71.9c1.5-5.5,2.4-11.2,2.4-17.1c0-34.8-28.2-63-63-63c-32.7,0-59.5,24.9-62.7,56.7
		C296.7,92.4,279.9,129,265,166.4c-14.9,37.3-28,76.1-28.9,116.2c-0.7,31.5,6,62.7,7.6,94.2c4.3,86.7-30.7,176.3-3.3,258.7
		c5.7,17.2,15,34.6,31,43.2c13.1,7,28.6,7.2,43.5,7.2c27.8,0,55.6,0,83.5,0c20.2,0,40.4,0,60.6,0l58.9,0c6.9,0,14.2-0.1,20.2-3.6
		C547.1,676.9,550.5,665.1,549.2,654.6z"/>
	
		<ellipse transform="matrix(0.9965 -8.376168e-02 8.376168e-02 0.9965 -2.9897 34.0791)" class="st1" cx="404.6" cy="52.7" rx="4.5" ry="10.1"/>
	
		<ellipse transform="matrix(0.9965 -8.376168e-02 8.376168e-02 0.9965 -3.0334 32.2459)" class="st1" cx="382.8" cy="52.3" rx="4.5" ry="10.1"/>
	<g>
		<g>
			<linearGradient id="SVGID_1_" gradientUnits="userSpaceOnUse" x1="313.3254" y1="325.1735" x2="460.6642" y2="374.3743">
				<stop  offset="0.3712" style="stop-color:#CB30A7"/>
				<stop  offset="0.711" style="stop-color:#3576E1"/>
				<stop  offset="1" style="stop-color:#3E8925"/>
			</linearGradient>
			<path class="st2" d="M400.9,304c-2.5-3.7-7.5-4.7-11.9-4.2c-4.4,0.5-8.6,2.1-13.1,2.4c-3.6,0.3-7.3-0.4-10.9-0.4
				c-4.8,0-9.5,1-13.8,2.9c-14.2,6.4-22.3,22.4-23,37.9c-0.8,15.5,4.6,30.7,11,44.9c3.7,8.2,8.4,16.7,16.4,20.7
				c6.4,3.2,13.9,3,21,2.7c10.6-0.4,21.3-0.8,31.9-1.2c5.1-0.2,10.3-0.4,15.4-0.6c7.3-0.3,14.7-0.6,21.8-2.4
				c16.4-4.3,30.3-17.5,35.3-33.7c5.2-16.6,1.4-35.2-7.2-50.4c-5.2-9.3-12.8-18.1-23.1-21c-5.5-1.5-11.4-1.2-17.1-0.9
				c-10.5,0.6-20.9,1.2-31.4,1.9"/>
			<g>
				
					<linearGradient id="SVGID_00000128463268018437875110000005218716484378897083_" gradientUnits="userSpaceOnUse" x1="381.6805" y1="294.2171" x2="415.4466" y2="294.2171">
					<stop  offset="0" style="stop-color:#FFFFFF"/>
					<stop  offset="0.4247" style="stop-color:#9F9F9E"/>
					<stop  offset="0.5264" style="stop-color:#A8A8A7"/>
					<stop  offset="1" style="stop-color:#1D1D1B"/>
				</linearGradient>
				<path style="fill:url(#SVGID_00000128463268018437875110000005218716484378897083_);" d="M398.3,311.1c0,0-18.5,4.8-7.2,4.8
					s24.7,0,24.4-2.4c-0.3-2.4-19.6-41-22-41s-16.1,2.4-10.4,8C388.6,286.2,398.3,311.1,398.3,311.1L398.3,311.1z"/>
				<g>
					
						<linearGradient id="SVGID_00000176014164831224066270000015403622599979634350_" gradientUnits="userSpaceOnUse" x1="391.7092" y1="364.0186" x2="403.4782" y2="364.0186">
						<stop  offset="0" style="stop-color:#FFFFFF"/>
						<stop  offset="0.4247" style="stop-color:#9F9F9E"/>
						<stop  offset="0.5264" style="stop-color:#A8A8A7"/>
						<stop  offset="1" style="stop-color:#1D1D1B"/>
					</linearGradient>
					<path style="fill:url(#SVGID_00000176014164831224066270000015403622599979634350_);" d="M402.8,405.8
						c-18.2-13.4-8.5-80.8-8.1-83.6l1.2,0.2c-0.1,0.7-10,69.5,7.6,82.5L402.8,405.8L402.8,405.8z"/>
					
						<linearGradient id="SVGID_00000085942905975217138350000009078356418332201889_" gradientUnits="userSpaceOnUse" x1="362.0498" y1="358.3851" x2="389.2609" y2="358.3851">
						<stop  offset="0" style="stop-color:#FFFFFF"/>
						<stop  offset="0.4247" style="stop-color:#9F9F9E"/>
						<stop  offset="0.5264" style="stop-color:#A8A8A7"/>
						<stop  offset="1" style="stop-color:#1D1D1B"/>
					</linearGradient>
					<path style="fill:url(#SVGID_00000085942905975217138350000009078356418332201889_);" d="M370.8,399.9
						c-14.2-26.5-8.6-47.6-1.4-60.7c7.8-14.2,19-22.2,19.2-22.3l0.7,1c-0.1,0.1-11.2,8-18.8,21.9c-7,12.8-12.5,33.6,1.5,59.5
						L370.8,399.9L370.8,399.9z"/>
					
						<linearGradient id="SVGID_00000121250688683758780340000016142023674530679460_" gradientUnits="userSpaceOnUse" x1="413.1907" y1="361.5974" x2="434.3223" y2="361.5974">
						<stop  offset="0" style="stop-color:#FFFFFF"/>
						<stop  offset="0.4247" style="stop-color:#9F9F9E"/>
						<stop  offset="0.5264" style="stop-color:#A8A8A7"/>
						<stop  offset="1" style="stop-color:#1D1D1B"/>
					</linearGradient>
					<path style="fill:url(#SVGID_00000121250688683758780340000016142023674530679460_);" d="M430.8,405.5l-1.1-0.4
						c13.3-39.5-16.2-86.4-16.5-86.8l1-0.7c0.1,0.1,7.6,12,13.4,28.7C433,361.8,437.9,384.6,430.8,405.5L430.8,405.5z"/>
					
						<linearGradient id="SVGID_00000004530041582204972750000008975464270443936647_" gradientUnits="userSpaceOnUse" x1="425.0216" y1="355.5825" x2="465.723" y2="355.5825">
						<stop  offset="0" style="stop-color:#FFFFFF"/>
						<stop  offset="0.4247" style="stop-color:#9F9F9E"/>
						<stop  offset="0.5264" style="stop-color:#A8A8A7"/>
						<stop  offset="1" style="stop-color:#1D1D1B"/>
					</linearGradient>
					<path style="fill:url(#SVGID_00000004530041582204972750000008975464270443936647_);" d="M465.5,397.4l-1.2-0.1
						c2.1-36.2-8.8-56.7-18.2-67.5c-10.2-11.7-20.9-14.8-21.1-14.9l0.3-1.2c0.5,0.1,11.2,3.3,21.6,15.2
						C456.6,340,467.5,360.7,465.5,397.4L465.5,397.4z"/>
					
						<linearGradient id="SVGID_00000114072476547852750740000006532976739265433995_" gradientUnits="userSpaceOnUse" x1="340.2755" y1="338.9083" x2="378.7136" y2="338.9083">
						<stop  offset="0" style="stop-color:#FFFFFF"/>
						<stop  offset="0.4247" style="stop-color:#9F9F9E"/>
						<stop  offset="0.5264" style="stop-color:#A8A8A7"/>
						<stop  offset="1" style="stop-color:#1D1D1B"/>
					</linearGradient>
					<path style="fill:url(#SVGID_00000114072476547852750740000006532976739265433995_);" d="M341.8,365.9
						c-3.1-14.3-1.4-26.3,5.2-35.7c10.9-15.4,31.3-18.2,31.6-18.3l0.2,1.2c-0.2,0-20.2,2.8-30.7,17.8c-6.4,9.1-8.1,20.7-5,34.7
						L341.8,365.9L341.8,365.9z"/>
					
						<linearGradient id="SVGID_00000073680698674461663180000017189764052247780266_" gradientUnits="userSpaceOnUse" x1="354.4703" y1="308.8167" x2="387.9196" y2="308.8167">
						<stop  offset="0" style="stop-color:#FFFFFF"/>
						<stop  offset="0.4247" style="stop-color:#9F9F9E"/>
						<stop  offset="0.5264" style="stop-color:#A8A8A7"/>
						<stop  offset="1" style="stop-color:#1D1D1B"/>
					</linearGradient>
					<path style="fill:url(#SVGID_00000073680698674461663180000017189764052247780266_);" d="M387.5,311.3
						c-0.2-0.1-22-8.2-32.3-0.1l-0.8-0.9c10.8-8.6,32.5-0.4,33.4-0.1L387.5,311.3L387.5,311.3z"/>
					
						<linearGradient id="SVGID_00000057869197202011514790000015336752646663466408_" gradientUnits="userSpaceOnUse" x1="407.0489" y1="303.9802" x2="416.4077" y2="303.9802">
						<stop  offset="0" style="stop-color:#FFFFFF"/>
						<stop  offset="0.4247" style="stop-color:#9F9F9E"/>
						<stop  offset="0.5264" style="stop-color:#A8A8A7"/>
						<stop  offset="1" style="stop-color:#1D1D1B"/>
					</linearGradient>
					<path style="fill:url(#SVGID_00000057869197202011514790000015336752646663466408_);" d="M407.1,309.5c0-0.1-0.3-8.3,9-11.1
						l0.4,1.2c-8.4,2.6-8.2,9.6-8.1,9.9L407.1,309.5L407.1,309.5z"/>
					
						<linearGradient id="SVGID_00000137089876350294713310000007823585561796714413_" gradientUnits="userSpaceOnUse" x1="415.7441" y1="309.0956" x2="442.9169" y2="309.0956">
						<stop  offset="0" style="stop-color:#FFFFFF"/>
						<stop  offset="0.4247" style="stop-color:#9F9F9E"/>
						<stop  offset="0.5264" style="stop-color:#A8A8A7"/>
						<stop  offset="1" style="stop-color:#1D1D1B"/>
					</linearGradient>
					<path style="fill:url(#SVGID_00000137089876350294713310000007823585561796714413_);" d="M416.7,314.7l-1-0.7
						c0.1-0.1,11.2-14.8,27.2-9.3l-0.4,1.1C427.4,300.6,416.8,314.6,416.7,314.7L416.7,314.7z"/>
				</g>
			</g>
		</g>
		<g>
			<path class="st1" d="M470.1,453.5h-134c-10.4,0-19.3-7.4-21.2-17.6l-14-73.8c-1.2-6.3,0.5-12.8,4.6-17.8c4.1-5,10.2-7.8,16.7-7.8
				h162c6.5,0,12.5,2.9,16.7,7.8c4.1,5,5.8,11.5,4.6,17.8l-14,73.8C489.4,446.1,480.5,453.5,470.1,453.5z"/>
			<path class="st1" d="M502.1,363.2c-33.2-79.6-66.5-119.9-99-119.9s-65.7,40.4-99,119.9l-5.5-2.3c17-40.7,34.3-71.7,51.3-92.1
				c17.5-20.9,35.4-31.5,53.2-31.5s35.7,10.6,53.2,31.5c17.1,20.4,34.3,51.4,51.3,92.1L502.1,363.2z"/>
		</g>
	</g>
	<path id="uuid-9d9a93d5-477f-4408-ba58-a51ce76fe99f-127" class="st12" d="M368.2,229.7c13.3-7.7,28.1-7.1,33.1,1.4
		c4.9,8.5-1.9,21.6-15.3,29.4c-5.3,3.2-11.3,5-17.4,5.4l-56.9,32.1l-14.5-27l57.7-28.7C358.3,237,362.9,232.7,368.2,229.7
		L368.2,229.7z"/>
	<g>
		
			<linearGradient id="SVGID_00000114045842372932601150000002369492258816176571_" gradientUnits="userSpaceOnUse" x1="478.3972" y1="604.486" x2="633.6014" y2="656.3133">
			<stop  offset="0.3712" style="stop-color:#CB30A7"/>
			<stop  offset="0.711" style="stop-color:#3576E1"/>
			<stop  offset="1" style="stop-color:#3E8925"/>
		</linearGradient>
		<path style="fill:url(#SVGID_00000114045842372932601150000002369492258816176571_);" d="M552.4,576.5c-2.6-3.8-7.9-4.9-12.5-4.4
			s-9,2.2-13.7,2.5c-3.8,0.3-7.6-0.4-11.4-0.4c-5,0-9.9,1-14.5,3.1c-14.8,6.7-23.3,23.4-24.1,39.6c-0.8,16.2,4.8,32.1,11.5,46.9
			c3.9,8.6,8.8,17.5,17.2,21.7c6.7,3.3,14.5,3.1,22,2.8c11.1-0.4,22.2-0.9,33.4-1.3c5.4-0.2,10.7-0.4,16.1-0.6
			c7.6-0.3,15.4-0.6,22.8-2.5c17.2-4.5,31.6-18.3,36.9-35.2c5.5-17.4,1.4-36.8-7.5-52.7c-5.5-9.7-13.4-18.9-24.2-21.9
			c-5.8-1.6-11.9-1.3-17.9-0.9c-10.9,0.6-21.8,1.3-32.8,1.9"/>
		<g>
			<path class="st1" d="M549.7,583.9c0,0-19.3,5-7.6,5s25.8,0,25.5-2.5s-20.5-42.8-23-42.8s-16.8,2.5-10.9,8.4
				S549.7,583.9,549.7,583.9z"/>
			<g>
				<path class="st1" d="M554.3,682.9c-19-14-8.9-84.4-8.5-87.4l1.3,0.2c-0.1,0.7-10.5,72.7,8,86.2L554.3,682.9L554.3,682.9z"/>
				<path class="st1" d="M521,676.7c-14.8-27.7-9-49.8-1.5-63.5c8.1-14.8,19.9-23.2,20-23.3l0.7,1c-0.1,0.1-11.7,8.3-19.7,22.9
					c-7.3,13.4-13,35.1,1.5,62.2L521,676.7L521,676.7z"/>
				<path class="st1" d="M583.7,682.6l-1.2-0.4c13.9-41.3-16.9-90.3-17.2-90.8l1.1-0.7c0.1,0.1,8,12.6,14,30
					C585.9,636.9,591,660.8,583.7,682.6z"/>
				<path class="st1" d="M619.9,674.1l-1.3-0.1c2.2-37.9-9.2-59.3-19-70.6c-10.6-12.2-21.9-15.5-22-15.5l0.3-1.2
					c0.5,0.1,11.7,3.4,22.6,15.9C610.6,614.1,622.1,635.8,619.9,674.1L619.9,674.1z"/>
				<path class="st1" d="M490.6,641.2c-3.3-15-1.4-27.5,5.5-37.3c11.3-16.1,32.8-19.1,33-19.1l0.2,1.3c-0.2,0-21.1,2.9-32.1,18.6
					c-6.7,9.5-8.4,21.7-5.3,36.3L490.6,641.2L490.6,641.2z"/>
				<path class="st1" d="M538.4,584.1c-0.2-0.1-23-8.6-33.7-0.1l-0.8-1c11.3-9,34-0.5,35-0.1L538.4,584.1z"/>
				<path class="st1" d="M558.8,582.3c0-0.1-0.3-8.6,9.4-11.6l0.4,1.2c-8.8,2.7-8.5,10.1-8.5,10.4L558.8,582.3z"/>
				<path class="st1" d="M568.9,587.7l-1-0.8c0.1-0.2,11.7-15.5,28.4-9.7l-0.4,1.2C580.1,573,569,587.6,568.9,587.7z"/>
			</g>
		</g>
	</g>
	<g>
		
			<linearGradient id="SVGID_00000080193985634420117310000018090917536533633199_" gradientUnits="userSpaceOnUse" x1="159.6972" y1="603.0063" x2="309.1739" y2="652.921">
			<stop  offset="0.3712" style="stop-color:#CB30A7"/>
			<stop  offset="0.711" style="stop-color:#3576E1"/>
			<stop  offset="1" style="stop-color:#3E8925"/>
		</linearGradient>
		<path style="fill:url(#SVGID_00000080193985634420117310000018090917536533633199_);" d="M239.8,576.5c2.6-3.8,7.9-4.9,12.5-4.4
			c4.6,0.5,9,2.2,13.7,2.5c3.8,0.3,7.6-0.4,11.4-0.4c5,0,9.9,1,14.5,3.1c14.8,6.7,23.3,23.4,24.1,39.6c0.8,16.2-4.8,32.1-11.5,46.9
			c-3.9,8.6-8.8,17.5-17.2,21.7c-6.7,3.3-14.5,3.1-22,2.8c-11.1-0.4-22.2-0.9-33.4-1.3c-5.4-0.2-10.7-0.4-16.1-0.6
			c-7.6-0.3-15.4-0.6-22.8-2.5c-17.2-4.5-31.6-18.3-36.9-35.2c-5.5-17.4-1.4-36.8,7.5-52.7c5.5-9.7,13.4-18.9,24.2-21.9
			c5.8-1.6,11.9-1.3,17.9-0.9c10.9,0.6,21.8,1.3,32.8,1.9"/>
		<g>
			<path class="st1" d="M242.5,583.9c0,0,19.3,5,7.6,5s-25.8,0-25.5-2.5c0.3-2.5,20.5-42.8,23-42.8s16.8,2.5,10.9,8.4
				C252.6,557.9,242.5,583.9,242.5,583.9z"/>
			<g>
				<path class="st1" d="M237.8,682.9c19-14,8.9-84.4,8.5-87.4l-1.3,0.2c0.1,0.7,10.5,72.7-8,86.2L237.8,682.9L237.8,682.9z"/>
				<path class="st1" d="M271.2,676.7c14.8-27.7,9-49.8,1.5-63.5c-8.1-14.8-19.9-23.2-20-23.3l-0.7,1c0.1,0.1,11.7,8.3,19.7,22.9
					c7.3,13.4,13,35.1-1.5,62.2L271.2,676.7z"/>
				<path class="st1" d="M208.5,682.6l1.2-0.4c-13.9-41.3,16.9-90.3,17.2-90.8l-1.1-0.7c-0.1,0.1-8,12.6-14,30
					C206.3,636.9,201.1,660.8,208.5,682.6L208.5,682.6z"/>
				<path class="st1" d="M172.3,674.1l1.3-0.1c-2.2-37.9,9.2-59.3,19-70.6c10.6-12.2,21.9-15.5,22-15.5l-0.3-1.2
					c-0.5,0.1-11.7,3.4-22.6,15.9C181.6,614.1,170.1,635.8,172.3,674.1L172.3,674.1z"/>
				<path class="st1" d="M301.6,641.2c3.3-15,1.4-27.5-5.5-37.3c-11.3-16.1-32.8-19.1-33-19.1l-0.2,1.3c0.2,0,21.1,2.9,32.1,18.6
					c6.7,9.5,8.4,21.7,5.3,36.3L301.6,641.2z"/>
				<path class="st1" d="M253.8,584.1c0.2-0.1,23-8.6,33.7-0.1l0.8-1c-11.3-9-34-0.5-35-0.1L253.8,584.1L253.8,584.1z"/>
				<path class="st1" d="M233.4,582.3c0-0.1,0.3-8.6-9.4-11.6l-0.4,1.2c8.8,2.7,8.5,10.1,8.5,10.4L233.4,582.3z"/>
				<path class="st1" d="M223.3,587.7l1-0.8c-0.1-0.2-11.7-15.5-28.4-9.7l0.4,1.2C212.1,573,223.1,587.6,223.3,587.7z"/>
			</g>
		</g>
	</g>
</g>
<path class="st1" d="M0,686c0,0.7,0.5,1.2,1.2,1.2h729.3c0.7,0,1.2-0.5,1.2-1.2c0-0.7-0.5-1.2-1.2-1.2H1.2C0.5,684.8,0,685.4,0,686z
	"/>
</svg>
