<?xml version="1.0" encoding="UTF-8"?><svg id="Lager_1" xmlns="http://www.w3.org/2000/svg" viewBox="0 0 771.2 611.9"><defs><style>.cls-1{letter-spacing:0em;}.cls-2{letter-spacing:0em;}.cls-3{letter-spacing:0em;}.cls-4{letter-spacing:0em;}.cls-5{letter-spacing:0em;}.cls-6{letter-spacing:0em;}.cls-7{letter-spacing:0em;}.cls-8{font-family:Continuo, Continuo;font-size:90px;}.cls-9{fill:#1d1d1b;stroke-width:0px;}.cls-10{letter-spacing:0em;}</style></defs><path class="cls-9" d="m485.5,525.6c-36.4,21.8-79,34.3-124.6,34.3s-88.1-12.5-124.6-34.3h249.1Z"/><path class="cls-9" d="m546,474.6c-12.8,15-27.5,28.5-43.6,40H219.6c-16.1-11.5-30.8-25-43.6-40h370Z"/><path class="cls-9" d="m579.6,423.6c-7,14.2-15.2,27.5-24.7,40H167.1c-9.5-12.5-17.8-25.8-24.7-40h437.2Z"/><path class="cls-9" d="m604.3,310.6H117.7c.3-13.6,1.8-27,4.2-40h478.1c2.5,13,3.9,26.4,4.2,40Z"/><path class="cls-9" d="m597.6,259.6H124.3c3.3-13.8,7.8-27.2,13.4-40h446.6c5.6,12.8,10.1,26.2,13.4,40Z"/><path class="cls-9" d="m579.2,208.6H142.8c7-14.2,15.4-27.6,24.9-40h386.6c9.5,12.4,17.9,25.8,24.9,40Z"/><path class="cls-9" d="m545.3,157.6H176.6c13-15.1,27.8-28.5,44.1-40h280.5c16.3,11.5,31.1,24.9,44.1,40Z"/><path class="cls-9" d="m484.2,106.6h-246.5c36.2-21.3,78.3-33.5,123.2-33.5s87.1,12.2,123.2,33.5Z"/><text class="cls-8" transform="translate(13.6 396.7)"><tspan class="cls-1" x="0" y="0">Y</tspan><tspan x="54.6" y="0">RK</tspan><tspan class="cls-6" x="166.5" y="0">E</tspan><tspan class="cls-2" x="216.6" y="0">S</tspan><tspan class="cls-7" x="269" y="0">V</tspan><tspan class="cls-3" x="311.8" y="0">Ä</tspan><tspan class="cls-10" x="362.2" y="0">GLE</tspan><tspan class="cls-4" x="520.5" y="0">D</tspan><tspan class="cls-5" x="578.2" y="0">A</tspan><tspan x="630" y="0">RN</tspan></text></svg>