<?xml version="1.0" encoding="utf-8"?>
<!-- Generator: Adobe Illustrator 27.9.0, SVG Export Plug-In . SVG Version: 6.00 Build 0)  -->
<svg version="1.1" id="Lager_1" xmlns="http://www.w3.org/2000/svg" xmlns:xlink="http://www.w3.org/1999/xlink" x="0px" y="0px"
	 viewBox="0 0 670.7 675.7" style="enable-background:new 0 0 670.7 675.7;" xml:space="preserve">
<style type="text/css">
	.st0{fill:#F2F2F2;}
	.st1{fill:#FFB6B6;}
	.st2{fill:#2F2E41;}
	.st3{fill:#A0616A;}
	.st4{fill:url(#SVGID_1_);}
	.st5{fill:#E6E6E6;}
	.st6{fill:#CB30A7;}
	.st7{opacity:0.3;fill:#F0F0F0;enable-background:new    ;}
	.st8{fill:url(#SVGID_00000009553740345911956850000015928186102848869281_);}
	.st9{fill:url(#SVGID_00000178185260132761161980000017681886134984013981_);}
	.st10{fill:url(#SVGID_00000100373166552097416950000011824207782863901862_);}
	.st11{fill:url(#SVGID_00000010295637818670033450000010515677508910968733_);}
	.st12{fill:#CCCCCC;}
</style>
<path class="st0" d="M169.2,648.4c-2,0.1-3.7-1.5-3.8-3.4c0-1.1,0.4-2.1,1.2-2.8c0.1-0.4,0.2-0.6,0.2-1c-2-5-7.6-7.4-12.6-5.5
	c-2.4,1-4.4,2.9-5.4,5.3c-4.3,10-9.8,20.4-7.1,31.4c-18.2-38.6-12-86.6,14.9-119.6c7.4-4.1,13.5-11.4,15-19.8
	c-3.7,1.2-8.3-1.7-5.5-5.6c1.2-1.5,2.4-3,3.6-4.4c-14-14.9-30.6,8.5-15.3,28.6c-5,6.3-9.4,13.1-13,20.4c0.8-7.7-0.2-15.4-2.9-22.6
	c-2.8-6.7-8-12.4-12.6-18.2c-5.6-7.1-17.1-3.8-17.8,5.2c5.2,1.7,5.8,9.1-0.1,10.2c1.5,16.7,12.5,32,27.5,39.4
	c-5.5,15.6-7.7,32.1-6.4,48.6c-2.7-19.2-23.3-23.9-37.8-31.6c-2.6-1.7-6.1-0.9-7.8,1.7c-0.8,1.2-1,2.6-0.8,4c2,0.8,3.9,1.8,5.7,3
	c2.3,1.5,2.8,4.6,1.3,6.8c-0.8,1.2-2.1,2-3.6,2.1c7.3,18,26.1,30.1,45.4,30c1.9,8.1,4.5,15.9,8,23.4h28.7c0.1-0.3,0.2-0.6,0.3-1
	c-2.7,0.2-5.3,0-7.9-0.5C167.8,664.3,173.3,660,169.2,648.4L169.2,648.4z"/>
<path class="st0" d="M425,648.4c2,0.1,3.7-1.5,3.8-3.4c0-1.1-0.4-2.1-1.2-2.8c-0.1-0.4-0.2-0.6-0.2-1c2-5,7.6-7.4,12.6-5.5
	c2.4,1,4.4,2.9,5.4,5.3c4.3,10,9.8,20.4,7.1,31.4c18.2-38.6,12-86.6-14.9-119.6c-7.4-4.1-13.5-11.4-15-19.8c3.7,1.2,8.3-1.7,5.5-5.6
	c-1.2-1.5-2.4-3-3.6-4.4c14-14.9,30.6,8.5,15.3,28.6c5,6.3,9.4,13.1,13,20.4c-0.8-7.7,0.2-15.4,2.9-22.6c2.8-6.7,8-12.4,12.6-18.2
	c5.6-7.1,17.1-3.8,17.8,5.2c-5.2,1.7-5.8,9.1,0.1,10.2c-1.5,16.7-12.5,32-27.5,39.4c5.5,15.6,7.7,32.1,6.4,48.6
	c2.7-19.2,23.3-23.9,37.8-31.6c2.6-1.7,6.1-0.9,7.8,1.7c0.8,1.2,1,2.6,0.8,4c-2,0.8-3.9,1.8-5.7,3c-2.3,1.5-2.8,4.6-1.3,6.8
	c0.8,1.2,2.1,2,3.6,2.1c-7.3,18-26.1,30.1-45.4,30c-1.9,8.1-4.5,15.9-8,23.4h-28.7c-0.1-0.3-0.2-0.6-0.3-1c2.7,0.2,5.3,0,7.9-0.5
	C426.3,664.3,420.9,660,425,648.4L425,648.4z"/>
<polygon class="st1" points="435.6,652.7 423.3,655.5 406.5,609.2 424.8,605 "/>
<path class="st2" d="M439,665.5l-38,8.6l-0.1-0.5c-1.9-8.2,3.3-16.3,11.4-18.2l0,0l5.7-6.8l14.1,2.3l3.3-0.8L439,665.5z"/>
<polygon class="st1" points="634.9,426.9 641.7,437.6 603.7,468.9 593.7,453.1 "/>
<path class="st2" d="M645.9,419.4l20.9,32.9l-0.4,0.3c-7.1,4.5-16.4,2.4-20.9-4.7l0,0l-8.4-3.1l-2.6-14.1l-1.8-2.9L645.9,419.4z"/>
<path class="st3" d="M241.1,312.5l-3.1-17.7l46.4-21l10-17.7c-1-4.7,2-9.2,6.7-10.2c4.7-1,9.2,2,10.2,6.7c0.8,3.7-0.9,7.4-4.2,9.2
	l-16.5,25.5L241.1,312.5z"/>
<linearGradient id="SVGID_1_" gradientUnits="userSpaceOnUse" x1="230.8559" y1="293.1735" x2="251.9459" y2="309.968">
	<stop  offset="0.3126" style="stop-color:#CB30A7;stop-opacity:0.9"/>
	<stop  offset="0.3823" style="stop-color:#AB3FB3;stop-opacity:0.9"/>
	<stop  offset="0.4888" style="stop-color:#8152C4;stop-opacity:0.9"/>
	<stop  offset="0.5925" style="stop-color:#6062D0;stop-opacity:0.9"/>
	<stop  offset="0.6913" style="stop-color:#486DDA;stop-opacity:0.9"/>
	<stop  offset="0.7831" style="stop-color:#3A74DF;stop-opacity:0.9"/>
	<stop  offset="0.861" style="stop-color:#3576E1;stop-opacity:0.9"/>
	<stop  offset="1" style="stop-color:#3E8925;stop-opacity:0.7"/>
</linearGradient>
<polygon class="st4" points="227,298.1 247.9,287.4 253.4,308.1 238.9,318.9 "/>
<polygon class="st3" points="180.1,651.1 192.7,651.1 198.7,602.3 180.1,602.3 "/>
<path class="st2" d="M196.9,652.2v-8.6l-3.3,0.2l-13.5,0.8l-3.1,0.2l-2.4,28.7l-0.1,1.5h9l0.3-1.5l1.3-6.9l3.4,6.9l0.7,1.5h23.8
	c2.9,0,5.3-2.4,5.3-5.4C219.2,665,199.4,654.9,196.9,652.2z"/>
<polygon class="st3" points="30.1,457.7 27.2,470 73.2,487.2 77.5,469 "/>
<path class="st2" d="M26.1,473.8l8.3,2l0.6-3.3l2.4-13.3l0.5-3.1l-27.3-9l-1.5-0.5L7,455.3l1.4,0.6l6.4,2.9l-7.5,1.7l-1.7,0.4
	L0.1,484c-0.7,2.9,1.1,5.7,4,6.4C8.4,492.5,22.9,475.6,26.1,473.8z"/>
<path class="st3" d="M199.6,335.7l-16.3-7.6l-32.4,39.2l-19.8,5c-4.2-2.2-9.4-0.5-11.6,3.8c-2.2,4.2-0.5,9.4,3.8,11.6
	c3.3,1.7,7.4,1.1,10-1.6l28.9-9.2L199.6,335.7z"/>
<path class="st5" d="M430.2,190.4c-9.6,0-17.4-7.8-17.4-17.4s7.8-17.4,17.4-17.4s17.4,7.8,17.4,17.4
	C447.6,182.6,439.8,190.4,430.2,190.4z M430.2,157.6c-8.5,0-15.4,6.9-15.4,15.4s6.9,15.4,15.4,15.4s15.4-6.9,15.4-15.4v0
	C445.6,164.5,438.7,157.6,430.2,157.6z"/>
<path class="st5" d="M428.9,179.6c0,0-0.1,0-0.1,0c-0.6,0-1.2-0.3-1.6-0.8l-2.7-3.5c-0.7-0.9-0.6-2.3,0.4-3c0,0,0,0,0,0l0.1-0.1
	c0.9-0.7,2.3-0.6,3,0.4c0,0,0,0,0,0c0.5,0.7,1.5,0.8,2.2,0.3c0.1,0,0.1-0.1,0.2-0.2l5.6-5.9c0.8-0.9,2.2-0.9,3-0.1l0.1,0.1
	c0.9,0.8,0.9,2.2,0.1,3c0,0,0,0,0,0l-8.7,9.1C430.1,179.3,429.5,179.6,428.9,179.6z"/>
<path class="st5" d="M343.2,401.4c-9.6,0-17.4-7.8-17.4-17.4s7.8-17.4,17.4-17.4s17.4,7.8,17.4,17.4l0,0
	C360.6,393.6,352.8,401.4,343.2,401.4z M343.2,368.6c-8.5,0-15.4,6.9-15.4,15.4s6.9,15.4,15.4,15.4s15.4-6.9,15.4-15.4l0,0
	C358.6,375.5,351.7,368.6,343.2,368.6L343.2,368.6z"/>
<path class="st5" d="M341.9,390.6c0,0-0.1,0-0.1,0c-0.6,0-1.2-0.3-1.6-0.8l-2.7-3.5c-0.7-0.9-0.6-2.3,0.4-3c0,0,0,0,0,0l0.1-0.1
	c0.9-0.7,2.3-0.6,3,0.4c0,0,0,0,0,0c0.5,0.7,1.5,0.8,2.2,0.3c0.1,0,0.1-0.1,0.2-0.2l5.6-5.9c0.8-0.9,2.2-0.9,3-0.1l0.1,0.1
	c0.9,0.8,0.9,2.2,0.1,3c0,0,0,0,0,0l-8.7,9.1C343.1,390.3,342.5,390.6,341.9,390.6z"/>
<path class="st5" d="M152.2,166.4c-9.6,0-17.4-7.8-17.4-17.4c0-9.6,7.8-17.4,17.4-17.4c9.6,0,17.4,7.8,17.4,17.4
	C169.6,158.6,161.8,166.4,152.2,166.4z M152.2,133.6c-8.5,0-15.4,6.9-15.4,15.4c0,8.5,6.9,15.4,15.4,15.4c8.5,0,15.4-6.9,15.4-15.4
	l0,0C167.6,140.5,160.7,133.6,152.2,133.6L152.2,133.6z"/>
<path class="st5" d="M150.9,155.6c0,0-0.1,0-0.1,0c-0.6,0-1.2-0.3-1.6-0.8l-2.7-3.5c-0.7-0.9-0.6-2.3,0.4-3c0,0,0,0,0,0l0.1-0.1
	c0.9-0.7,2.3-0.6,3,0.4c0,0,0,0,0,0c0.5,0.7,1.5,0.8,2.2,0.3c0.1,0,0.1-0.1,0.2-0.2l5.6-5.9c0.8-0.9,2.2-0.9,3-0.1l0.1,0.1
	c0.9,0.8,0.9,2.2,0.1,3c0,0,0,0,0,0l-8.7,9.1C152.1,155.3,151.5,155.6,150.9,155.6z"/>
<path class="st0" d="M291.7,466.2c-40.4,0-86.9-44.8-127.9-23.5c-124.4,64.5-107.3-43.4-143-83.6l1.2-2.4
	c39.4,35.4,88.7,64.1,142.4,83.2c48.5,17.2,97.5,25.2,141.4,23.1l0.1,2.8C301.1,466.1,296.4,466.2,291.7,466.2z"/>
<ellipse class="st5" cx="236.2" cy="151.7" rx="8.4" ry="11.3"/>
<path class="st5" d="M333.8,339.7c-3.9,2.6-7.8-3.6-3.9-6C333.8,331.1,337.8,337.3,333.8,339.7z"/>
<circle class="st6" cx="311.6" cy="122.5" r="11"/>
<path class="st7" d="M350.1,182.8L412.7,0l-68.7,180.6c-1.2,1.5-0.9,3.7,0.6,4.8s3.7,0.9,4.8-0.6C349.8,184.3,350,183.6,350.1,182.8
	L350.1,182.8z"/>
<circle class="st0" cx="286.9" cy="394.8" r="10.7"/>
<path class="st2" d="M183.2,398.9c0,0-26.7,17.4-19.6,28.9c0.2,0.4-31.9,42.8-31.9,42.8l-60.6-3.8L69,487.1l54,15.6
	c0,0,13.2,9.7,23.4-1s44.2-43.4,44.2-43.4l1.6,66.1l-17.1,91.6l25.5-1.6l24.8-91.9l9.1-104.1L183.2,398.9z"/>
<linearGradient id="SVGID_00000085932827946619305630000005474540429780441754_" gradientUnits="userSpaceOnUse" x1="165.8916" y1="330.6487" x2="238.2738" y2="388.2886">
	<stop  offset="0.3126" style="stop-color:#CB30A7;stop-opacity:0.9"/>
	<stop  offset="0.3823" style="stop-color:#AB3FB3;stop-opacity:0.9"/>
	<stop  offset="0.4888" style="stop-color:#8152C4;stop-opacity:0.9"/>
	<stop  offset="0.5925" style="stop-color:#6062D0;stop-opacity:0.9"/>
	<stop  offset="0.6913" style="stop-color:#486DDA;stop-opacity:0.9"/>
	<stop  offset="0.7831" style="stop-color:#3A74DF;stop-opacity:0.9"/>
	<stop  offset="0.861" style="stop-color:#3576E1;stop-opacity:0.9"/>
	<stop  offset="1" style="stop-color:#3E8925;stop-opacity:0.7"/>
</linearGradient>
<path style="fill:url(#SVGID_00000085932827946619305630000005474540429780441754_);" d="M202.2,294.6l-11.2,8.5l-12.8,27.3
	l12.3,16.7c0,0,10.3,17.9-6.2,35.3s-29.3,35.9-16,35.2s66.9,26.6,67.3,4.3s1.1-39.5,1.1-39.5l14.1-35.7c0,0,8.4-21.3,2.5-27.7
	s-13.8-14.5-13.8-14.5l-14.3-14.3h-12.9L202.2,294.6z"/>
<path class="st3" d="M223.2,242.2c25.2,14.3,4.5,52.1-21.1,38.7C176.9,266.5,197.5,228.7,223.2,242.2z"/>
<path class="st2" d="M236.6,250.1c-1.8,2.3-5.4,1.2-12.7,2.9c0-2.4-0.3-4.9-0.8-7.3c-0.5,2.9-1.7,5.7-3.4,8.2
	c-6.3,0.7,1.4,19.7-1.8,33.7c-4.1-29.5-12.8-21.8-8.4-15.9c2.8,3.7,0.9,15-7.5,9.4c-13.9,6.6-33.7-26.2-11.8-41.7
	c-0.4-8.3,8.9-9.6,14.6-7.1C218.6,222,234.4,235.2,236.6,250.1z"/>
<path class="st2" d="M172.1,228.6c-5.6,34.5-35.6-6.3-49.8,27.6c-4.4,12.3,3.2,21.1,8,31.3c1.1,8.4-9.8,12.6-10.9,20.3
	c-0.3,17.7,28.2,16.6,36.2,5.4c8.2-11.7-1.6-27.3,3.3-39.9c6.9-17.4,35.1-17.5,37.5-37.8C191.6,228.8,178.9,221.1,172.1,228.6z"/>
<path class="st2" d="M194.8,232c-0.2,0.1-0.4,0.2-0.5,0.2h0c-0.2,0.1-0.3,0.2-0.5,0.2c0,0,0,0,0,0c-0.2-0.2-0.4-0.4-0.6-0.6
	c-0.1,0.3,0,0.6,0,0.9l0,0.1c0.2,0.2,0.4,0.4,0.6,0.6c0.2-0.1,0.4-0.3,0.6-0.4c0.1-0.1,0.2-0.2,0.4-0.3
	C194.7,232.6,194.7,232.3,194.8,232L194.8,232z M200.6,221.2c-4.3-1-5.7,4.6-6.1,7.4c-1.6-9.8-8.1-6.7-5.8,0c0.7,2,1.8,3.8,3.3,5.3
	c0.2,0.2,0.4,0.5,0.7,0.7c-0.3,1.4,1.1,1,2.8-0.2c1.3-0.9,2.5-2,3.6-3.2C202.6,227.4,205.3,222.5,200.6,221.2L200.6,221.2z
	 M200.7,226.8c-1.3,1.7-2.8,3.3-4.4,4.7c-0.5,0.5-1,0.9-1.6,1.3c0,0.1,0,0.2,0,0.2c0,0.1-0.1,0.2-0.1,0.3c-0.5,1-1.1,0.4-1.4-0.4
	c0,0,0-0.1-0.1-0.1c-0.8-0.8-1.4-1.7-2-2.6c-4-6.9,2.4-11.6,2.1,1.3c-0.1,0.1-0.1,0.2-0.1,0.4c-0.1,0.3,0,0.6,0,0.9l0,0.1
	c0.2,0.2,0.4,0.4,0.6,0.6c0.2-0.1,0.4-0.3,0.6-0.4c0.1-0.1,0.2-0.2,0.4-0.3c0-0.3,0-0.5,0.1-0.9v0c0.3-2.6,0.9-7.2,2.2-8.5
	C199.7,221.3,203.3,223.6,200.7,226.8L200.7,226.8z M194.8,232c-0.2,0.1-0.4,0.2-0.5,0.2h0c-0.2,0.1-0.3,0.2-0.5,0.2c0,0,0,0,0,0
	c-0.2-0.2-0.4-0.4-0.6-0.6c-0.1,0.3,0,0.6,0,0.9l0,0.1c0.2,0.2,0.4,0.4,0.6,0.6c0.2-0.1,0.4-0.3,0.6-0.4c0.1-0.1,0.2-0.2,0.4-0.3
	C194.7,232.6,194.7,232.3,194.8,232L194.8,232z"/>
<path class="st2" d="M427.4,421.9l-9.3,24.2l-43.6,86l38.3,100.1l19.8-5.2l-16.3-94.8l46.8-56.8l55.5,37.7c0,0,24.6,19.2,34,1
	s70-57,70-57l-15-16l-69.8,32.7l-48.2-67.8L427.4,421.9z"/>
<linearGradient id="SVGID_00000110439543700721584630000010313648681827084957_" gradientUnits="userSpaceOnUse" x1="392.3102" y1="320.4208" x2="513.9701" y2="417.3019">
	<stop  offset="0.3126" style="stop-color:#CB30A7;stop-opacity:0.9"/>
	<stop  offset="0.3823" style="stop-color:#AB3FB3;stop-opacity:0.9"/>
	<stop  offset="0.4888" style="stop-color:#8152C4;stop-opacity:0.9"/>
	<stop  offset="0.5925" style="stop-color:#6062D0;stop-opacity:0.9"/>
	<stop  offset="0.6913" style="stop-color:#486DDA;stop-opacity:0.9"/>
	<stop  offset="0.7831" style="stop-color:#3A74DF;stop-opacity:0.9"/>
	<stop  offset="0.861" style="stop-color:#3576E1;stop-opacity:0.9"/>
	<stop  offset="1" style="stop-color:#3E8925;stop-opacity:0.7"/>
</linearGradient>
<path style="fill:url(#SVGID_00000110439543700721584630000010313648681827084957_);" d="M474.3,307.6L459,291.1l-26.2-3.6
	L400.6,310l0.3,24.9l15.9,58.7c0,0-6.1,42.2,10.9,41.8s26.1-8.9,33-7.1s36.2,9,38,1.4s11.7-2.2,11.3-9.4s-26.7-59.4-26.7-59.4
	l6.5-52.2L474.3,307.6z"/>
<path class="st1" d="M571.2,231.9c0.5,5.2-3.2,9.7-8.4,10.3c-0.5,0.1-1.1,0.1-1.7,0L526,309.1l-9.4-14.5l36-63.2
	c0.7-5.2,5.5-8.7,10.7-8C567.5,224.1,570.8,227.5,571.2,231.9z"/>
<linearGradient id="SVGID_00000135657755768814545360000010657901123579307400_" gradientUnits="userSpaceOnUse" x1="490.9287" y1="281.6832" x2="529.9141" y2="312.7283">
	<stop  offset="0.3126" style="stop-color:#CB30A7;stop-opacity:0.9"/>
	<stop  offset="0.3713" style="stop-color:#AB3FB3;stop-opacity:0.9"/>
	<stop  offset="0.4609" style="stop-color:#8152C4;stop-opacity:0.9"/>
	<stop  offset="0.5482" style="stop-color:#6062D0;stop-opacity:0.9"/>
	<stop  offset="0.6314" style="stop-color:#486DDA;stop-opacity:0.9"/>
	<stop  offset="0.7087" style="stop-color:#3A74DF;stop-opacity:0.9"/>
	<stop  offset="0.7742" style="stop-color:#3576E1;stop-opacity:0.9"/>
	<stop  offset="1" style="stop-color:#3E8925;stop-opacity:0.7"/>
</linearGradient>
<path style="fill:url(#SVGID_00000135657755768814545360000010657901123579307400_);" d="M460.4,320c0,0-1.4,11.9,12,14.9
	s50.5-18.3,56.6-21.5c1.9-1,4.5-6,7.1-12.3c1.2-2.9,2.4-6,3.6-9.2c0.7-1.8,3.9-2.3,4.5-4.2c0.6-1.8-1.3-4.9-0.8-6.7
	c2.7-8.1,4.6-14.5,4.6-14.5l-8.9-16.7c-12.4,6.6-18.8,21-23.5,37.7L460.4,320z"/>
<path class="st1" d="M303.9,247.3c0.8,5.1,5.6,8.6,10.7,7.8c0.5-0.1,1.1-0.2,1.6-0.4l50.8,56l5.5-16.4l-50.6-52.2
	c-2-4.8-7.5-7.1-12.3-5.1C305.5,238.7,303.2,243,303.9,247.3z"/>
<linearGradient id="SVGID_00000181074712495286336910000005758490273195028411_" gradientUnits="userSpaceOnUse" x1="336.2881" y1="260.3833" x2="422.2375" y2="328.8272">
	<stop  offset="0" style="stop-color:#3E8925;stop-opacity:0.7"/>
	<stop  offset="8.482172e-02" style="stop-color:#3A8173;stop-opacity:0.7851"/>
	<stop  offset="0.1993" style="stop-color:#3576E1;stop-opacity:0.9"/>
	<stop  offset="0.5193" style="stop-color:#CB30A7;stop-opacity:0.9"/>
	<stop  offset="0.9033" style="stop-color:#CB30A7;stop-opacity:0.9"/>
</linearGradient>
<path style="fill:url(#SVGID_00000181074712495286336910000005758490273195028411_);" d="M433.2,304.8c0,0,4.3,11.2-7.9,17.4
	s-53.5-5-60.2-6.7c-2.1-0.5-5.8-4.7-10-10.2c-1.9-2.5-3.8-5.2-5.7-8c-1.1-1.6-4.4-1.3-5.4-2.9c-1.1-1.6,0-5.1-0.9-6.6
	c-4.7-7.2-8.1-12.9-8.1-12.9l4.4-18.4c13.7,3.2,23.5,15.7,32.2,30.6L433.2,304.8z"/>
<circle class="st1" cx="446.4" cy="258.4" r="25"/>
<path class="st2" d="M474.9,244.1c-2.6-4.1-7.6-6.8-12.3-6c-1.3-9.2-9.9-15.6-19.1-14.2c-3.4,0.5-6.6,2-9.1,4.4
	c-1.5-1.1-3.4-1.3-5.1-0.5c-1.6,0.7-3.1,1.9-4.2,3.3c-5.6,7-6.9,16.4-3.4,24.7c-0.6-2.1,1.5-4.1,3.7-4.6c2.2-0.5,4.4,0,6.6-0.3
	c2.8-0.4,5.3-2,8.1-2.4c2.4-0.2,4.8,0.2,7,0.9c2.3,0.7,4.6,1.1,7,0.9c2.4-0.3,5.4,8.6,5.3,14.9c0,1.2,0.2,2.7,1.4,3
	c1.4,0.3,2.3-1.7,3.6-2.2c1.3-0.4,2.7,0.4,3.1,1.6c0.3,1.3,0.1,2.7-0.8,3.7c-0.8,1-1.8,1.9-2.9,2.6l0.6,0.5c1.1,1.2,2.9,1.4,4.2,0.5
	c1.3-0.9,2.3-2.1,3-3.5c2.6-4.1,4.5-8.6,5.6-13.3C478.1,253.3,477.5,248.1,474.9,244.1z"/>
<path class="st0" d="M659.7,342.6c-32.2,24.4-96.3,16.7-116.2,58.5c-60.2,126.5-111.8,30.1-164.5,19.7l-0.5-2.6
	c52.8,4.4,109.4-2.4,163.8-19.6c49.1-15.6,92.9-38.7,126.7-67l1.8,2.2C667.1,336.8,663.5,339.7,659.7,342.6z"/>
<path class="st12" d="M523.5,674c-0.8,2.3-438.8,2.3-439.7,0C84.6,671.7,522.6,671.7,523.5,674z"/>
</svg>
