<?xml version="1.0" encoding="utf-8"?>
<!-- Generator: Adobe Illustrator 27.9.0, SVG Export Plug-In . SVG Version: 6.00 Build 0)  -->
<svg version="1.1" id="Lager_1" xmlns="http://www.w3.org/2000/svg" xmlns:xlink="http://www.w3.org/1999/xlink" x="0px" y="0px"
	 viewBox="0 0 31.9 32" style="enable-background:new 0 0 31.9 32;" xml:space="preserve">
<style type="text/css">
	.st0{fill:#2E0F15;}
	.st1{fill:#9FC053;}
</style>
<g>
	<path class="st0" d="M23.9,29.3c-2.3,1.4-5,2.2-7.9,2.2c-2.9,0-5.6-0.8-7.9-2.2H23.9z"/>
	<path class="st0" d="M27.7,26c-0.8,1-1.7,1.8-2.8,2.5H7c-1-0.7-2-1.6-2.8-2.5H27.7z"/>
	<path class="st1" d="M29.8,22.8c-0.4,0.9-1,1.8-1.6,2.5H3.6C3,24.6,2.5,23.7,2,22.8H29.8z"/>
	<path class="st1" d="M31,19.6c-0.2,0.9-0.5,1.7-0.8,2.5H1.7c-0.4-0.8-0.6-1.7-0.8-2.5H31z"/>
	<path class="st1" d="M31.4,16.3c0,0.9-0.1,1.7-0.3,2.5H0.7c-0.2-0.8-0.2-1.7-0.3-2.5H31.4z"/>
	<path class="st0" d="M31.4,15.6H0.5c0-0.9,0.1-1.7,0.3-2.5h30.4C31.3,13.9,31.4,14.8,31.4,15.6z"/>
	<path class="st0" d="M31,12.4H0.9c0.2-0.9,0.5-1.7,0.8-2.5h28.4C30.5,10.7,30.8,11.5,31,12.4z"/>
	<path class="st0" d="M29.8,9.1H2.1c0.4-0.9,1-1.8,1.6-2.5h24.6C28.8,7.4,29.4,8.2,29.8,9.1z"/>
	<path class="st0" d="M27.7,5.9H4.2C5.1,4.9,6,4.1,7,3.4h17.8C25.9,4.1,26.8,4.9,27.7,5.9z"/>
	<path class="st0" d="M23.8,2.7H8.1c2.3-1.4,5-2.1,7.8-2.1C18.8,0.5,21.5,1.3,23.8,2.7z"/>
</g>
</svg>
